<svg width="122" height="130" viewBox="0 0 122 130" fill="none" xmlns="http://www.w3.org/2000/svg">
<path d="M85.7813 66.6824C89.8498 63.1504 93.1131 58.7821 95.3497 53.8737C97.5863 48.9654 98.7438 43.6319 98.7438 38.2353C98.7438 28.0947 94.727 18.3694 87.5772 11.1989C80.4274 4.02835 70.7301 0 60.6188 0C50.5074 0 40.8101 4.02835 33.6603 11.1989C26.5105 18.3694 22.4938 28.0947 22.4938 38.2353C22.5408 43.6615 23.7577 49.0133 26.061 53.9236C28.3643 58.8338 31.6994 63.1863 35.8375 66.6824C25.1636 71.5297 16.1075 79.3576 9.75222 89.23C3.3969 99.1025 0.0112229 110.602 0 122.353C0 124.381 0.803346 126.326 2.23331 127.76C3.66328 129.194 5.60273 130 7.625 130C9.64728 130 11.5867 129.194 13.0167 127.76C14.4467 126.326 15.25 124.381 15.25 122.353C15.25 110.184 20.0701 98.5138 28.6499 89.9092C37.2297 81.3046 48.8664 76.4706 61 76.4706C73.1337 76.4706 84.7703 81.3046 93.3501 89.9092C101.93 98.5138 106.75 110.184 106.75 122.353C106.75 124.381 107.553 126.326 108.983 127.76C110.413 129.194 112.353 130 114.375 130C116.397 130 118.337 129.194 119.767 127.76C121.197 126.326 122 124.381 122 122.353C121.956 110.56 118.514 99.0307 112.088 89.1538C105.662 79.277 96.5265 71.4733 85.7813 66.6824ZM60.6188 61.1765C56.0945 61.1765 51.6719 59.831 47.9101 57.3102C44.1483 54.7894 41.2164 51.2065 39.485 47.0145C37.7537 42.8225 37.3007 38.2098 38.1833 33.7597C39.0659 29.3095 41.2446 25.2218 44.4437 22.0134C47.6428 18.8051 51.7187 16.6201 56.1561 15.7349C60.5934 14.8497 65.1928 15.304 69.3726 17.0404C73.5525 18.7768 77.1251 21.7172 79.6386 25.4899C82.1522 29.2625 83.4938 33.698 83.4938 38.2353C83.4938 44.3197 81.0837 50.1549 76.7938 54.4572C72.5039 58.7595 66.6856 61.1765 60.6188 61.1765Z" fill="#787878"/>
</svg>
