<svg width="48" height="48" viewBox="0 0 48 48" fill="none" xmlns="http://www.w3.org/2000/svg">
<path fill-rule="evenodd" clip-rule="evenodd" d="M38.0655 23.3199C37.8357 18.9828 35.9988 15.0711 33.1446 12.1909C32.9301 11.9744 32.7096 11.7629 32.4826 11.5576L32.4784 11.5539C29.4893 8.8466 25.5377 7.19995 21.2052 7.19995C20.8979 7.19995 20.5967 7.20866 20.2934 7.22483C15.9954 7.45687 12.12 9.31067 9.26583 12.1909C6.21025 15.2745 4.32031 19.5345 4.32031 24.24C4.32031 33.6508 11.8799 41.2799 21.2052 41.2799C23.805 41.2799 26.2674 40.6871 28.4671 39.6277C27.9556 39.3453 27.4482 39.0349 26.9479 38.6952C25.7111 37.8566 24.6168 36.9117 23.6845 35.9052C23.3743 35.9717 23.0596 36.0265 22.741 36.0682C22.2383 36.1341 21.7256 36.1677 21.2052 36.1677C14.6775 36.1677 9.38573 30.8278 9.38573 24.24C9.38573 21.1781 10.5292 18.3856 12.4085 16.2736C14.3197 14.1256 16.9917 12.6817 19.9967 12.3738C20.186 12.3539 20.3762 12.3402 20.5669 12.3296C20.7193 12.3215 20.8721 12.3159 21.024 12.3134C21.0541 12.3134 21.0842 12.3131 21.1144 12.3128C21.1446 12.3125 21.1749 12.3122 21.2052 12.3122C24.2208 12.3122 26.9727 13.4518 29.0609 15.3274C29.0671 15.3331 29.0734 15.3387 29.0796 15.3443C29.0876 15.3515 29.0956 15.3586 29.1035 15.366C31.1289 17.2032 32.5218 19.7364 32.9128 22.5924C28.0227 20.5016 23.3153 20.8379 21.3152 23.842C18.8549 27.5375 21.618 33.7593 27.4869 37.7388C33.3559 41.7183 40.1081 41.9485 42.5685 38.253C44.7559 34.9676 43.7614 30.3223 39.1795 26.3941C38.998 28.1641 38.3077 30.4093 37.5979 32.0331C39.0514 33.6449 39.064 34.7295 38.3926 35.738C37.675 36.8158 35.6829 36.5655 33.637 35.7708C33.6823 35.7211 33.7273 35.6712 33.772 35.6209C33.7948 35.5951 33.8177 35.5691 33.8405 35.5431C33.8534 35.5284 33.8663 35.5136 33.8791 35.499C34.851 34.3854 35.6812 33.1438 36.3409 31.8013C37.2486 29.95 37.8165 27.9401 38.0136 25.8735C38.0643 25.3361 38.0902 24.7911 38.0902 24.24C38.0902 23.9295 38.0817 23.626 38.0655 23.3199ZM29.1005 33.1165C29.4169 32.8296 29.7178 32.5257 30.002 32.2063C30.0724 32.1273 30.1419 32.047 30.2102 31.9662C30.91 31.1363 31.499 30.2082 31.9545 29.206C32.1468 28.7822 32.314 28.3475 32.4555 27.9042C29.7839 26.3698 26.1239 25.1785 25.1378 26.6596C24.1758 28.1045 26.6766 31.13 29.1005 33.1165Z" fill="url(#paint0_linear_148_455)"/>
<defs>
<linearGradient id="paint0_linear_148_455" x1="24.0003" y1="7.19995" x2="24.0003" y2="41.2799" gradientUnits="userSpaceOnUse">
<stop stop-color="#8CB4FF"/>
<stop offset="1" stop-color="#0D409D"/>
</linearGradient>
</defs>
</svg>
