<svg width="28" height="28" viewBox="0 0 28 28" fill="none" xmlns="http://www.w3.org/2000/svg">
<path d="M23.3346 13.3067C22.981 13.3067 22.6419 13.4472 22.3918 13.6972C22.1418 13.9473 22.0013 14.2864 22.0013 14.64V17.8267L20.0013 15.8534C19.2986 15.1787 18.3622 14.8019 17.388 14.8019C16.4138 14.8019 15.4774 15.1787 14.7746 15.8534L13.8413 16.7867L10.5213 13.4667C9.8268 12.7762 8.88728 12.3887 7.90797 12.3887C6.92865 12.3887 5.98914 12.7762 5.29463 13.4667L3.33464 15.4534V7.97336C3.33464 7.61974 3.47511 7.2806 3.72516 7.03055C3.97521 6.7805 4.31435 6.64002 4.66797 6.64002H12.668C13.0216 6.64002 13.3607 6.49955 13.6108 6.2495C13.8608 5.99945 14.0013 5.66031 14.0013 5.30669C14.0013 4.95307 13.8608 4.61393 13.6108 4.36388C13.3607 4.11383 13.0216 3.97336 12.668 3.97336H4.66797C3.6071 3.97336 2.58969 4.39478 1.83954 5.14493C1.0894 5.89508 0.667969 6.91249 0.667969 7.97336V23.9734C0.667969 25.0342 1.0894 26.0516 1.83954 26.8018C2.58969 27.5519 3.6071 27.9734 4.66797 27.9734H20.668C21.7288 27.9734 22.7463 27.5519 23.4964 26.8018C24.2465 26.0516 24.668 25.0342 24.668 23.9734V14.64C24.668 14.2864 24.5275 13.9473 24.2774 13.6972C24.0274 13.4472 23.6883 13.3067 23.3346 13.3067ZM4.66797 25.3067C4.31435 25.3067 3.97521 25.1662 3.72516 24.9162C3.47511 24.6661 3.33464 24.327 3.33464 23.9734V19.2267L7.17464 15.3334C7.27159 15.2334 7.38764 15.1539 7.5159 15.0996C7.64416 15.0453 7.78202 15.0173 7.9213 15.0173C8.06058 15.0173 8.19844 15.0453 8.3267 15.0996C8.45497 15.1539 8.57102 15.2334 8.66797 15.3334L12.8946 19.56L18.5746 25.24L4.66797 25.3067ZM22.0013 23.9734C21.9967 24.2302 21.918 24.4802 21.7746 24.6934L15.7213 18.6667L16.6546 17.7467C16.8495 17.5529 17.1131 17.4441 17.388 17.4441C17.6628 17.4441 17.9264 17.5529 18.1213 17.7467L22.0013 21.6V23.9734ZM26.9613 3.64002L23.7346 0.413358C23.4848 0.165024 23.1469 0.0256348 22.7946 0.0256348C22.4424 0.0256348 22.1045 0.165024 21.8546 0.413358L15.748 6.52002C15.6196 6.64239 15.5169 6.78915 15.4459 6.9517C15.3749 7.11426 15.3371 7.28934 15.3346 7.46669V10.6934C15.3346 11.047 15.4751 11.3861 15.7252 11.6362C15.9752 11.8862 16.3143 12.0267 16.668 12.0267H19.8946C20.2444 12.0252 20.5796 11.8863 20.828 11.64L26.9346 5.53336C27.0614 5.41118 27.1626 5.26511 27.2326 5.10358C27.3026 4.94205 27.3399 4.76827 27.3424 4.59225C27.3449 4.41623 27.3125 4.24146 27.2471 4.07802C27.1817 3.91459 27.0845 3.76573 26.9613 3.64002ZM19.3346 9.36002H18.0013V8.02669L22.8013 3.24002L24.1346 4.57336L19.3346 9.36002Z" fill="#DFE8F9"/>
</svg>
