<svg width="18" height="18" viewBox="0 0 18 18" fill="none" xmlns="http://www.w3.org/2000/svg">
<path d="M18 9C18 8.73478 17.8946 8.48043 17.7071 8.29289C17.5196 8.10536 17.2652 8 17 8H10V1C10 0.734784 9.89464 0.48043 9.70711 0.292894C9.51957 0.105357 9.26522 5.38895e-07 9 5.38895e-07C8.73478 5.38895e-07 8.48043 0.105357 8.29289 0.292894C8.10536 0.48043 8 0.734784 8 1V8H1C0.734784 8 0.48043 8.10536 0.292894 8.29289C0.105357 8.48043 5.38895e-07 8.73478 5.38895e-07 9C5.38895e-07 9.26522 0.105357 9.51957 0.292894 9.70711C0.48043 9.89464 0.734784 10 1 10H8V17C8 17.2652 8.10536 17.5196 8.29289 17.7071C8.48043 17.8946 8.73478 18 9 18C9.26522 18 9.51957 17.8946 9.70711 17.7071C9.89464 17.5196 10 17.2652 10 17V10H17C17.2652 10 17.5196 9.89464 17.7071 9.70711C17.8946 9.51957 18 9.26522 18 9Z" fill="#D9E6FF" fill-opacity="0.1"/>
</svg>
