<svg width="25" height="25" viewBox="0 0 25 25" fill="none" xmlns="http://www.w3.org/2000/svg">
<g id="icon/24">
<path id="Vector" d="M11.9405 2.5C9.37693 2.50731 6.91404 3.49891 5.06055 5.27V3.5C5.06055 3.23478 4.95519 2.98043 4.76765 2.79289C4.58012 2.60536 4.32576 2.5 4.06055 2.5C3.79533 2.5 3.54098 2.60536 3.35344 2.79289C3.1659 2.98043 3.06055 3.23478 3.06055 3.5V8C3.06055 8.26522 3.1659 8.51957 3.35344 8.70711C3.54098 8.89464 3.79533 9 4.06055 9H8.56055C8.82576 9 9.08012 8.89464 9.26765 8.70711C9.45519 8.51957 9.56055 8.26522 9.56055 8C9.56055 7.73478 9.45519 7.48043 9.26765 7.29289C9.08012 7.10536 8.82576 7 8.56055 7H6.16055C7.07226 6.03701 8.20905 5.31576 9.46868 4.90114C10.7283 4.48651 12.0712 4.39152 13.3767 4.6247C14.6821 4.85788 15.9091 5.41193 16.9473 6.23699C17.9855 7.06205 18.8023 8.13226 19.3243 9.35133C19.8462 10.5704 20.0569 11.9001 19.9374 13.2208C19.818 14.5415 19.372 15.8118 18.6398 16.9174C17.9076 18.0231 16.912 18.9293 15.7426 19.5547C14.5732 20.18 13.2666 20.5049 11.9405 20.5C11.6753 20.5 11.421 20.6054 11.2334 20.7929C11.0459 20.9804 10.9405 21.2348 10.9405 21.5C10.9405 21.7652 11.0459 22.0196 11.2334 22.2071C11.421 22.3946 11.6753 22.5 11.9405 22.5C14.5927 22.5 17.1363 21.4464 19.0116 19.5711C20.887 17.6957 21.9405 15.1522 21.9405 12.5C21.9405 9.84784 20.887 7.3043 19.0116 5.42893C17.1363 3.55357 14.5927 2.5 11.9405 2.5ZM11.9405 8.5C11.6753 8.5 11.421 8.60536 11.2334 8.79289C11.0459 8.98043 10.9405 9.23478 10.9405 9.5V12.5C10.9405 12.7652 11.0459 13.0196 11.2334 13.2071C11.421 13.3946 11.6753 13.5 11.9405 13.5H13.9405C14.2058 13.5 14.4601 13.3946 14.6477 13.2071C14.8352 13.0196 14.9405 12.7652 14.9405 12.5C14.9405 12.2348 14.8352 11.9804 14.6477 11.7929C14.4601 11.6054 14.2058 11.5 13.9405 11.5H12.9405V9.5C12.9405 9.23478 12.8352 8.98043 12.6477 8.79289C12.4601 8.60536 12.2058 8.5 11.9405 8.5Z" fill="#D9E6FF"/>
</g>
</svg>
