<svg width="48" height="48" viewBox="0 0 48 48" fill="none" xmlns="http://www.w3.org/2000/svg">
<path d="M24 4C20.0444 4 16.1776 5.17298 12.8886 7.37061C9.59962 9.56824 7.03617 12.6918 5.52242 16.3463C4.00867 20.0009 3.6126 24.0222 4.3843 27.9018C5.15601 31.7814 7.06082 35.3451 9.85787 38.1421C12.6549 40.9392 16.2186 42.844 20.0982 43.6157C23.9778 44.3874 27.9992 43.9913 31.6537 42.4776C35.3082 40.9638 38.4318 38.4004 40.6294 35.1114C42.827 31.8224 44 27.9556 44 24C44 21.3736 43.4827 18.7728 42.4776 16.3463C41.4725 13.9198 39.9993 11.715 38.1421 9.85786C36.285 8.00069 34.0802 6.5275 31.6537 5.52241C29.2272 4.51732 26.6264 4 24 4ZM24 40C19.7565 40 15.6869 38.3143 12.6863 35.3137C9.68572 32.3131 8.00001 28.2435 8.00001 24C7.99559 20.4467 9.18604 16.9951 11.38 14.2L33.8 36.62C31.0049 38.814 27.5533 40.0044 24 40ZM36.62 33.8L14.2 11.38C16.9951 9.18603 20.4467 7.99558 24 8C28.2435 8 32.3131 9.68571 35.3137 12.6863C38.3143 15.6869 40 19.7565 40 24C40.0044 27.5533 38.814 31.0049 36.62 33.8Z" fill="#F95A5A"/>
</svg>
