<svg width="17" height="17" viewBox="0 0 17 17" fill="none" xmlns="http://www.w3.org/2000/svg">
<path d="M15.9345 0.648097C15.3611 0.549324 14.7804 0.498482 14.1985 0.496097C12.2132 0.49447 10.2693 1.06376 8.59851 2.1361C6.92342 1.07784 4.97983 0.522522 2.99851 0.536097C2.41662 0.538481 1.83595 0.589324 1.26251 0.688097C1.07467 0.72048 0.90457 0.818864 0.782836 0.965531C0.661102 1.1122 0.595734 1.29751 0.598505 1.4881V11.0881C0.596792 11.2056 0.621006 11.3221 0.669425 11.4292C0.717844 11.5364 0.789278 11.6315 0.878644 11.7079C0.96801 11.7843 1.07311 11.84 1.18647 11.8712C1.29983 11.9023 1.41866 11.9081 1.53451 11.8881C2.68092 11.6896 3.85547 11.7225 4.98896 11.985C6.12245 12.2474 7.19197 12.734 8.13451 13.4161L8.23051 13.4721H8.31851C8.40723 13.5091 8.50239 13.5281 8.59851 13.5281C8.69462 13.5281 8.78979 13.5091 8.87851 13.4721H8.96651L9.06251 13.4161C9.99847 12.7187 11.0649 12.2164 12.1986 11.9388C13.3323 11.6612 14.5102 11.614 15.6625 11.8001C15.7784 11.8201 15.8972 11.8143 16.0105 11.7832C16.1239 11.752 16.229 11.6963 16.3184 11.6199C16.4077 11.5435 16.4792 11.4484 16.5276 11.3412C16.576 11.2341 16.6002 11.1176 16.5985 11.0001V1.4001C16.5902 1.21782 16.5198 1.04387 16.399 0.907087C16.2783 0.770309 16.1144 0.678927 15.9345 0.648097ZM7.79851 11.2801C6.31841 10.5014 4.67092 10.0951 2.99851 10.0961C2.73451 10.0961 2.47051 10.0961 2.19851 10.0961V2.0961C2.46495 2.08074 2.73206 2.08074 2.99851 2.0961C4.70521 2.09421 6.37468 2.59505 7.79851 3.5361V11.2801ZM14.9985 10.1281C14.7265 10.1281 14.4625 10.1281 14.1985 10.1281C12.5261 10.1271 10.8786 10.5334 9.39851 11.3121V3.5361C10.8223 2.59505 12.4918 2.09421 14.1985 2.0961C14.465 2.08074 14.7321 2.08074 14.9985 2.0961V10.1281ZM15.9345 13.4481C15.3611 13.3493 14.7804 13.2985 14.1985 13.2961C12.2132 13.2945 10.2693 13.8638 8.59851 14.9361C6.92772 13.8638 4.98381 13.2945 2.99851 13.2961C2.41662 13.2985 1.83595 13.3493 1.26251 13.4481C1.15837 13.4646 1.05852 13.5016 0.968715 13.5568C0.878907 13.6121 0.800906 13.6845 0.739199 13.77C0.677491 13.8555 0.633294 13.9524 0.609148 14.055C0.585003 14.1577 0.581386 14.2641 0.598505 14.3681C0.63916 14.5758 0.760497 14.759 0.935938 14.8775C1.11138 14.9959 1.32662 15.04 1.53451 15.0001C2.68092 14.8016 3.85547 14.8345 4.98896 15.097C6.12245 15.3594 7.19197 15.846 8.13451 16.5281C8.27 16.6246 8.43218 16.6764 8.59851 16.6764C8.76483 16.6764 8.92702 16.6246 9.06251 16.5281C10.005 15.846 11.0746 15.3594 12.2081 15.097C13.3415 14.8345 14.5161 14.8016 15.6625 15.0001C15.8704 15.04 16.0856 14.9959 16.2611 14.8775C16.4365 14.759 16.5579 14.5758 16.5985 14.3681C16.6156 14.2641 16.612 14.1577 16.5879 14.055C16.5637 13.9524 16.5195 13.8555 16.4578 13.77C16.3961 13.6845 16.3181 13.6121 16.2283 13.5568C16.1385 13.5016 16.0386 13.4646 15.9345 13.4481Z" fill="white"/>
</svg>
