<svg width="20" height="20" viewBox="0 0 20 20" fill="none" xmlns="http://www.w3.org/2000/svg">
<path d="M14.1988 5.64815C13.644 5.64852 13.1065 5.8411 12.6776 6.19314C12.2488 6.54518 11.9552 7.03492 11.8467 7.57904C11.7383 8.12316 11.8217 8.68805 12.0828 9.17759C12.3439 9.66714 12.7665 10.0511 13.2788 10.2641C13.157 10.5561 12.9514 10.8054 12.688 10.9805C12.4246 11.1557 12.1152 11.2488 11.7988 11.2481H8.59883C8.03487 11.2505 7.48203 11.4053 6.99883 11.6961V7.10415C7.5326 6.91543 7.98248 6.54409 8.26894 6.05576C8.5554 5.56744 8.66001 4.99356 8.56427 4.43556C8.46853 3.87757 8.17862 3.37138 7.74576 3.00646C7.31291 2.64155 6.76498 2.44141 6.19883 2.44141C5.63268 2.44141 5.08476 2.64155 4.65191 3.00646C4.21905 3.37138 3.92913 3.87757 3.8334 4.43556C3.73766 4.99356 3.84227 5.56744 4.12873 6.05576C4.41519 6.54409 4.86506 6.91543 5.39883 7.10415V13.7921C4.87162 13.9817 4.42736 14.3498 4.14303 14.8326C3.85871 15.3153 3.75224 15.8824 3.84207 16.4354C3.93191 16.9884 4.21239 17.4926 4.63491 17.8605C5.05743 18.2284 5.59536 18.4369 6.15548 18.4499C6.71559 18.4629 7.2626 18.2795 7.70169 17.9315C8.14078 17.5835 8.44429 17.0928 8.55962 16.5446C8.67495 15.9963 8.59483 15.425 8.33315 14.9296C8.07146 14.4342 7.6447 14.0459 7.12683 13.8321C7.2481 13.5415 7.45246 13.293 7.71431 13.118C7.97617 12.9429 8.28386 12.8491 8.59883 12.8481H11.7988C12.5307 12.848 13.2404 12.597 13.8096 12.137C14.3788 11.6769 14.7731 11.0357 14.9268 10.3201C15.4617 10.1384 15.9153 9.77384 16.2078 9.29059C16.5004 8.80734 16.6131 8.23639 16.5261 7.67823C16.4391 7.12007 16.1581 6.61048 15.7324 6.23914C15.3067 5.86781 14.7636 5.65853 14.1988 5.64815ZM6.19883 4.04815C6.35706 4.04815 6.51173 4.09507 6.64329 4.18297C6.77485 4.27088 6.87739 4.39582 6.93794 4.542C6.99849 4.68818 7.01433 4.84904 6.98346 5.00422C6.95259 5.1594 6.8764 5.30195 6.76452 5.41383C6.65264 5.52572 6.51009 5.60191 6.35491 5.63278C6.19972 5.66364 6.03887 5.6478 5.89269 5.58725C5.74651 5.5267 5.62156 5.42416 5.53366 5.2926C5.44575 5.16104 5.39883 5.00637 5.39883 4.84815C5.39883 4.63597 5.48312 4.43249 5.63315 4.28246C5.78318 4.13243 5.98666 4.04815 6.19883 4.04815ZM6.19883 16.8481C6.04061 16.8481 5.88594 16.8012 5.75438 16.7133C5.62282 16.6254 5.52028 16.5005 5.45973 16.3543C5.39918 16.2081 5.38334 16.0473 5.4142 15.8921C5.44507 15.7369 5.52127 15.5943 5.63315 15.4825C5.74503 15.3706 5.88758 15.2944 6.04276 15.2635C6.19795 15.2327 6.3588 15.2485 6.50498 15.309C6.65116 15.3696 6.7761 15.4721 6.86401 15.6037C6.95191 15.7353 6.99883 15.8899 6.99883 16.0481C6.99883 16.2603 6.91455 16.4638 6.76452 16.6138C6.61449 16.7639 6.41101 16.8481 6.19883 16.8481ZM14.1988 8.84815C14.0406 8.84815 13.8859 8.80123 13.7544 8.71332C13.6228 8.62542 13.5203 8.50048 13.4597 8.35429C13.3992 8.20811 13.3833 8.04726 13.4142 7.89208C13.4451 7.73689 13.5213 7.59434 13.6331 7.48246C13.745 7.37058 13.8876 7.29439 14.0428 7.26352C14.1979 7.23265 14.3588 7.24849 14.505 7.30904C14.6512 7.3696 14.7761 7.47213 14.864 7.60369C14.9519 7.73525 14.9988 7.88992 14.9988 8.04815C14.9988 8.26032 14.9145 8.4638 14.7645 8.61383C14.6145 8.76386 14.411 8.84815 14.1988 8.84815Z" fill="#D9E6FF"/>
</svg>
