<svg width="24" height="25" viewBox="0 0 24 25" fill="none" xmlns="http://www.w3.org/2000/svg">
<path d="M17 6.55994C16.3065 6.5604 15.6345 6.80114 15.0985 7.24118C14.5625 7.68123 14.1954 8.2934 14.0599 8.97355C13.9243 9.6537 14.0286 10.3598 14.355 10.9717C14.6813 11.5837 15.2097 12.0636 15.85 12.3299C15.6978 12.6949 15.4408 13.0065 15.1115 13.2254C14.7822 13.4444 14.3954 13.5608 14 13.5599H10C9.29505 13.5629 8.604 13.7564 8.00001 14.1199V8.37994C8.66722 8.14405 9.22956 7.67987 9.58764 7.06946C9.94571 6.45905 10.0765 5.7417 9.9568 5.04421C9.83713 4.34671 9.47473 3.71398 8.93367 3.25784C8.3926 2.80169 7.70769 2.55151 7.00001 2.55151C6.29232 2.55151 5.60741 2.80169 5.06635 3.25784C4.52528 3.71398 4.16288 4.34671 4.04321 5.04421C3.92354 5.7417 4.0543 6.45905 4.41237 7.06946C4.77045 7.67987 5.33279 8.14405 6.00001 8.37994V16.7399C5.34099 16.9769 4.78566 17.437 4.43026 18.0405C4.07485 18.6439 3.94176 19.3527 4.05406 20.044C4.16635 20.7352 4.51695 21.3654 5.0451 21.8254C5.57325 22.2853 6.24567 22.5459 6.94581 22.5621C7.64596 22.5783 8.32971 22.3491 8.87857 21.9141C9.42744 21.4791 9.80683 20.8658 9.95099 20.1805C10.0952 19.4951 9.995 18.781 9.6679 18.1617C9.34079 17.5425 8.80735 17.0572 8.16001 16.7899C8.31158 16.4266 8.56704 16.116 8.89436 15.8972C9.22168 15.6784 9.60629 15.5611 10 15.5599H14C14.9148 15.5598 15.802 15.246 16.5135 14.671C17.225 14.0959 17.7179 13.2944 17.91 12.3999C18.5786 12.1728 19.1456 11.717 19.5113 11.113C19.8769 10.5089 20.0178 9.79524 19.9091 9.09754C19.8004 8.39984 19.449 7.76285 18.9169 7.29869C18.3848 6.83452 17.706 6.57292 17 6.55994ZM7.00001 4.55994C7.19779 4.55994 7.39113 4.61859 7.55558 4.72847C7.72003 4.83835 7.8482 4.99453 7.92389 5.17726C7.99957 5.35998 8.01938 5.56105 7.98079 5.75503C7.94221 5.94901 7.84697 6.1272 7.70711 6.26705C7.56726 6.4069 7.38908 6.50214 7.1951 6.54073C7.00112 6.57931 6.80005 6.55951 6.61732 6.48382C6.4346 6.40813 6.27842 6.27996 6.16854 6.11551C6.05866 5.95106 6.00001 5.75772 6.00001 5.55994C6.00001 5.29472 6.10536 5.04037 6.2929 4.85283C6.48044 4.6653 6.73479 4.55994 7.00001 4.55994ZM7.00001 20.5599C6.80222 20.5599 6.60889 20.5013 6.44444 20.3914C6.27999 20.2815 6.15181 20.1254 6.07613 19.9426C6.00044 19.7599 5.98064 19.5588 6.01922 19.3649C6.05781 19.1709 6.15305 18.9927 6.2929 18.8528C6.43275 18.713 6.61093 18.6177 6.80492 18.5792C6.9989 18.5406 7.19996 18.5604 7.38269 18.6361C7.56542 18.7117 7.72159 18.8399 7.83148 19.0044C7.94136 19.1688 8.00001 19.3622 8.00001 19.5599C8.00001 19.8252 7.89465 20.0795 7.70711 20.267C7.51958 20.4546 7.26522 20.5599 7.00001 20.5599ZM17 10.5599C16.8022 10.5599 16.6089 10.5013 16.4444 10.3914C16.28 10.2815 16.1518 10.1253 16.0761 9.94262C16.0004 9.7599 15.9806 9.55883 16.0192 9.36485C16.0578 9.17087 16.153 8.99269 16.2929 8.85283C16.4328 8.71298 16.6109 8.61774 16.8049 8.57916C16.9989 8.54057 17.2 8.56037 17.3827 8.63606C17.5654 8.71175 17.7216 8.83992 17.8315 9.00437C17.9414 9.16882 18 9.36216 18 9.55994C18 9.82516 17.8947 10.0795 17.7071 10.267C17.5196 10.4546 17.2652 10.5599 17 10.5599Z" fill="#D9E6FF"/>
</svg>
