<svg xmlns="http://www.w3.org/2000/svg" width="15" height="15" viewBox="0 0 15 15" fill="none">
  <path d="M10.2004 4.23709C9.78428 4.23736 9.38111 4.3818 9.05949 4.64583C8.73786 4.90986 8.51765 5.27716 8.43631 5.68525C8.35498 6.09335 8.41754 6.51701 8.61337 6.88417C8.8092 7.25133 9.12618 7.5393 9.5104 7.69909C9.41905 7.91805 9.26486 8.10502 9.06729 8.23638C8.86972 8.36774 8.63765 8.43758 8.40039 8.43709H6.00039C5.57742 8.43886 5.16279 8.55496 4.80039 8.77309V5.32909C5.20072 5.18755 5.53813 4.90905 5.75297 4.5428C5.96782 4.17655 6.04627 3.74614 5.97447 3.32765C5.90267 2.90915 5.68523 2.52951 5.36059 2.25582C5.03595 1.98214 4.62501 1.83203 4.20039 1.83203C3.77578 1.83203 3.36484 1.98214 3.0402 2.25582C2.71556 2.52951 2.49812 2.90915 2.42632 3.32765C2.35451 3.74614 2.43297 4.17655 2.64782 4.5428C2.86266 4.90905 3.20007 5.18755 3.60039 5.32909V10.3451C3.20499 10.4873 2.87179 10.7633 2.65854 11.1254C2.4453 11.4875 2.36545 11.9127 2.43282 12.3275C2.5002 12.7423 2.71056 13.1204 3.02745 13.3963C3.34434 13.6723 3.74779 13.8287 4.16788 13.8384C4.58796 13.8481 4.99822 13.7106 5.32754 13.4496C5.65686 13.1886 5.88449 12.8206 5.97098 12.4094C6.05748 11.9982 5.99739 11.5697 5.80113 11.1982C5.60487 10.8266 5.2848 10.5354 4.89639 10.3751C4.98734 10.1571 5.14062 9.97074 5.33701 9.83946C5.5334 9.70817 5.76417 9.63778 6.00039 9.63709H8.40039C8.94929 9.63698 9.48157 9.44872 9.90848 9.1037C10.3354 8.75868 10.6311 8.27775 10.7464 7.74109C11.1475 7.60479 11.4878 7.33135 11.7072 6.96892C11.9265 6.60648 12.0111 6.17827 11.9458 5.75965C11.8806 5.34103 11.6698 4.95884 11.3505 4.68034C11.0313 4.40183 10.624 4.24488 10.2004 4.23709ZM4.20039 3.03709C4.31906 3.03709 4.43507 3.07228 4.53374 3.13821C4.63241 3.20413 4.70931 3.29784 4.75472 3.40748C4.80013 3.51711 4.81202 3.63775 4.78887 3.75414C4.76571 3.87053 4.70857 3.97744 4.62466 4.06135C4.54075 4.14526 4.43384 4.20241 4.31745 4.22556C4.20106 4.24871 4.08042 4.23683 3.97078 4.19142C3.86115 4.146 3.76744 4.0691 3.70151 3.97043C3.63558 3.87176 3.60039 3.75576 3.60039 3.63709C3.60039 3.47796 3.66361 3.32535 3.77613 3.21282C3.88865 3.1003 4.04126 3.03709 4.20039 3.03709ZM4.20039 12.6371C4.08173 12.6371 3.96572 12.6019 3.86705 12.536C3.76838 12.47 3.69148 12.3763 3.64607 12.2667C3.60065 12.1571 3.58877 12.0364 3.61192 11.92C3.63507 11.8036 3.69222 11.6967 3.77613 11.6128C3.86004 11.5289 3.96695 11.4718 4.08334 11.4486C4.19973 11.4255 4.32037 11.4373 4.43 11.4828C4.53964 11.5282 4.63335 11.6051 4.69928 11.7037C4.7652 11.8024 4.80039 11.9184 4.80039 12.0371C4.80039 12.1962 4.73718 12.3488 4.62466 12.4614C4.51214 12.5739 4.35952 12.6371 4.20039 12.6371ZM10.2004 6.63709C10.0817 6.63709 9.96572 6.6019 9.86705 6.53597C9.76838 6.47004 9.69148 6.37633 9.64607 6.2667C9.60065 6.15706 9.58877 6.03642 9.61192 5.92003C9.63507 5.80365 9.69222 5.69673 9.77613 5.61282C9.86004 5.52891 9.96695 5.47177 10.0833 5.44862C10.1997 5.42547 10.3204 5.43735 10.43 5.48276C10.5396 5.52817 10.6333 5.60508 10.6993 5.70375C10.7652 5.80242 10.8004 5.91842 10.8004 6.03709C10.8004 6.19622 10.7372 6.34883 10.6247 6.46135C10.5121 6.57387 10.3595 6.63709 10.2004 6.63709Z" fill="#D9E6FF" fill-opacity="0.5"/>
</svg>