<svg width="60" height="60" viewBox="0 0 60 60" fill="none" xmlns="http://www.w3.org/2000/svg">
<rect width="60" height="60" rx="30" fill="#D9E6FF" fill-opacity="0.1"/>
<path d="M25.2004 24.12V25.12C25.5561 25.12 25.885 24.9311 26.0642 24.6239L25.2004 24.12ZM26.8804 21.24V20.24C26.5247 20.24 26.1958 20.4289 26.0166 20.7361L26.8804 21.24ZM33.1204 21.24L33.9842 20.7361C33.805 20.4289 33.4761 20.24 33.1204 20.24V21.24ZM34.8004 24.12L33.9366 24.6239C34.1158 24.9311 34.4447 25.12 34.8004 25.12V24.12ZM21.4004 36.36V26.52H19.4004V36.36H21.4004ZM22.8004 25.12H25.2004V23.12H22.8004V25.12ZM26.0642 24.6239L27.7442 21.7439L26.0166 20.7361L24.3366 23.6161L26.0642 24.6239ZM26.8804 22.24H33.1204V20.24H26.8804V22.24ZM32.2566 21.7439L33.9366 24.6239L35.6642 23.6161L33.9842 20.7361L32.2566 21.7439ZM34.8004 25.12H37.2004V23.12H34.8004V25.12ZM38.6004 26.52V36.36H40.6004V26.52H38.6004ZM38.6004 36.36C38.6004 37.1332 37.9736 37.76 37.2004 37.76V39.76C39.0782 39.76 40.6004 38.2378 40.6004 36.36H38.6004ZM37.2004 25.12C37.9736 25.12 38.6004 25.7468 38.6004 26.52H40.6004C40.6004 24.6422 39.0782 23.12 37.2004 23.12V25.12ZM21.4004 26.52C21.4004 25.7468 22.0272 25.12 22.8004 25.12V23.12C20.9226 23.12 19.4004 24.6422 19.4004 26.52H21.4004ZM22.8004 37.76C22.0272 37.76 21.4004 37.1332 21.4004 36.36H19.4004C19.4004 38.2378 20.9226 39.76 22.8004 39.76V37.76ZM32.6004 30.84C32.6004 32.2759 31.4363 33.44 30.0004 33.44V35.44C32.5409 35.44 34.6004 33.3805 34.6004 30.84H32.6004ZM30.0004 33.44C28.5644 33.44 27.4004 32.2759 27.4004 30.84H25.4004C25.4004 33.3805 27.4599 35.44 30.0004 35.44V33.44ZM27.4004 30.84C27.4004 29.404 28.5644 28.24 30.0004 28.24V26.24C27.4599 26.24 25.4004 28.2995 25.4004 30.84H27.4004ZM30.0004 28.24C31.4363 28.24 32.6004 29.404 32.6004 30.84H34.6004C34.6004 28.2995 32.5409 26.24 30.0004 26.24V28.24ZM37.2004 37.76H22.8004V39.76H37.2004V37.76Z" fill="#D9E6FF"/>
</svg>
