<svg width="49" height="48" viewBox="0 0 49 48" fill="none" xmlns="http://www.w3.org/2000/svg">
<path d="M24.5009 31.9996C24.1053 31.9996 23.7187 32.1169 23.3898 32.3366C23.0609 32.5564 22.8045 32.8687 22.6532 33.2342C22.5018 33.5997 22.4622 34.0018 22.5393 34.3897C22.6165 34.7777 22.807 35.1341 23.0867 35.4138C23.3664 35.6935 23.7228 35.884 24.1107 35.9611C24.4987 36.0383 24.9008 35.9987 25.2663 35.8473C25.6317 35.696 25.9441 35.4396 26.1639 35.1107C26.3836 34.7818 26.5009 34.3951 26.5009 33.9996C26.5009 33.4691 26.2902 32.9604 25.9151 32.5854C25.5401 32.2103 25.0313 31.9996 24.5009 31.9996ZM45.8409 34.9396L29.7409 6.93957C29.2205 6.0066 28.4605 5.22948 27.5393 4.6885C26.6181 4.14753 25.5692 3.8623 24.5009 3.8623C23.4326 3.8623 22.3837 4.14753 21.4625 4.6885C20.5413 5.22948 19.7813 6.0066 19.2609 6.93957L3.26091 34.9396C2.7225 35.8476 2.4332 36.8816 2.4222 37.9372C2.4112 38.9928 2.67891 40.0326 3.19828 40.9517C3.71766 41.8707 4.47032 42.6365 5.38028 43.1716C6.29024 43.7068 7.32528 43.9924 8.38091 43.9996H40.6209C41.685 44.0101 42.7328 43.7373 43.6567 43.2094C44.5807 42.6815 45.3476 41.9173 45.8789 40.9952C46.4101 40.0731 46.6866 39.0264 46.6799 37.9622C46.6732 36.8981 46.3837 35.8549 45.8409 34.9396ZM42.3809 38.9396C42.2056 39.2515 41.9498 39.5106 41.6403 39.69C41.3307 39.8694 40.9787 39.9625 40.6209 39.9596H8.38091C8.02313 39.9625 7.67111 39.8694 7.36155 39.69C7.05198 39.5106 6.79622 39.2515 6.62091 38.9396C6.44537 38.6355 6.35296 38.2906 6.35296 37.9396C6.35296 37.5885 6.44537 37.2436 6.62091 36.9396L22.6209 8.93957C22.7887 8.61196 23.0437 8.33703 23.3578 8.14505C23.6719 7.95307 24.0328 7.85149 24.4009 7.85149C24.769 7.85149 25.13 7.95307 25.444 8.14505C25.7581 8.33703 26.0131 8.61196 26.1809 8.93957L42.2809 36.9396C42.4793 37.2392 42.5934 37.5869 42.611 37.9458C42.6286 38.3048 42.5491 38.6619 42.3809 38.9796V38.9396ZM24.5009 15.9996C23.9705 15.9996 23.4618 16.2103 23.0867 16.5854C22.7116 16.9604 22.5009 17.4691 22.5009 17.9996V25.9996C22.5009 26.53 22.7116 27.0387 23.0867 27.4138C23.4618 27.7889 23.9705 27.9996 24.5009 27.9996C25.0313 27.9996 25.5401 27.7889 25.9151 27.4138C26.2902 27.0387 26.5009 26.53 26.5009 25.9996V17.9996C26.5009 17.4691 26.2902 16.9604 25.9151 16.5854C25.5401 16.2103 25.0313 15.9996 24.5009 15.9996Z" fill="#F95A5A"/>
</svg>
