<svg width="24" height="24" viewBox="0 0 24 24" fill="none" xmlns="http://www.w3.org/2000/svg">
<mask id="path-1-inside-1_246_19227" fill="white">
<path fill-rule="evenodd" clip-rule="evenodd" d="M6 2C3.79086 2 2 3.79086 2 6V18C2 20.2091 3.79086 22 6 22H18C20.2091 22 22 20.2091 22 18V6C22 3.79086 20.2091 2 18 2H6ZM10.9876 13.246L16.005 8.3323C16.2241 8.11946 16.5205 8 16.8295 8C17.1385 8 17.4349 8.11946 17.654 8.3323C17.7637 8.43853 17.8507 8.56491 17.9101 8.70416C17.9694 8.84342 18 8.99278 18 9.14363C18 9.29448 17.9694 9.44384 17.9101 9.5831C17.8507 9.72235 17.7637 9.84873 17.654 9.95497L11.8063 15.6686C11.5885 15.8797 11.2944 15.9987 10.9876 16C10.8337 16.0008 10.6811 15.972 10.5386 15.9152C10.3961 15.8583 10.2665 15.7745 10.1572 15.6686L7.40881 12.9718C7.28638 12.8693 7.18694 12.7433 7.11674 12.6015C7.04654 12.4597 7.00709 12.3053 7.00087 12.1479C6.99465 11.9905 7.02179 11.8336 7.08059 11.687C7.13939 11.5403 7.22857 11.4071 7.34255 11.2958C7.45653 11.1844 7.59284 11.0973 7.74292 11.0398C7.893 10.9824 8.05362 10.9559 8.21469 10.9619C8.37576 10.968 8.5338 11.0066 8.6789 11.0751C8.824 11.1437 8.95302 11.2409 9.05787 11.3605L10.9876 13.246Z"/>
</mask>
<path fill-rule="evenodd" clip-rule="evenodd" d="M6 2C3.79086 2 2 3.79086 2 6V18C2 20.2091 3.79086 22 6 22H18C20.2091 22 22 20.2091 22 18V6C22 3.79086 20.2091 2 18 2H6ZM10.9876 13.246L16.005 8.3323C16.2241 8.11946 16.5205 8 16.8295 8C17.1385 8 17.4349 8.11946 17.654 8.3323C17.7637 8.43853 17.8507 8.56491 17.9101 8.70416C17.9694 8.84342 18 8.99278 18 9.14363C18 9.29448 17.9694 9.44384 17.9101 9.5831C17.8507 9.72235 17.7637 9.84873 17.654 9.95497L11.8063 15.6686C11.5885 15.8797 11.2944 15.9987 10.9876 16C10.8337 16.0008 10.6811 15.972 10.5386 15.9152C10.3961 15.8583 10.2665 15.7745 10.1572 15.6686L7.40881 12.9718C7.28638 12.8693 7.18694 12.7433 7.11674 12.6015C7.04654 12.4597 7.00709 12.3053 7.00087 12.1479C6.99465 11.9905 7.02179 11.8336 7.08059 11.687C7.13939 11.5403 7.22857 11.4071 7.34255 11.2958C7.45653 11.1844 7.59284 11.0973 7.74292 11.0398C7.893 10.9824 8.05362 10.9559 8.21469 10.9619C8.37576 10.968 8.5338 11.0066 8.6789 11.0751C8.824 11.1437 8.95302 11.2409 9.05787 11.3605L10.9876 13.246Z" fill="#DFE8F9"/>
<path d="M16.005 8.3323L14.9599 7.25628L14.9555 7.26062L16.005 8.3323ZM10.9876 13.246L9.93934 14.3189L10.9888 15.3443L12.0372 14.3177L10.9876 13.246ZM17.654 8.3323L16.609 9.4083L16.6102 9.40948L17.654 8.3323ZM17.9101 8.70416L19.2899 8.11583L19.2899 8.11582L17.9101 8.70416ZM17.9101 9.5831L19.2899 10.1714L19.2899 10.1714L17.9101 9.5831ZM17.654 9.95497L16.6102 8.87778L16.6058 8.88207L17.654 9.95497ZM11.8063 15.6686L12.8502 16.7458L12.8546 16.7415L11.8063 15.6686ZM10.9876 16L10.9815 14.5L10.9792 14.5L10.9876 16ZM10.5386 15.9152L9.98264 17.3083L9.98265 17.3083L10.5386 15.9152ZM10.1572 15.6686L9.10667 16.7393L9.11335 16.7457L10.1572 15.6686ZM7.40881 12.9718L8.45937 11.9011L8.41696 11.8595L8.37139 11.8214L7.40881 12.9718ZM7.11674 12.6015L8.46098 11.9359L8.46097 11.9359L7.11674 12.6015ZM7.00087 12.1479L8.4997 12.0887L8.4997 12.0887L7.00087 12.1479ZM7.08059 11.687L8.47284 12.2452L8.47284 12.2452L7.08059 11.687ZM7.34255 11.2958L6.29427 10.2229L6.29426 10.2229L7.34255 11.2958ZM7.74292 11.0398L8.27915 12.4407L8.27916 12.4407L7.74292 11.0398ZM8.21469 10.9619L8.27126 9.463L8.21469 10.9619ZM9.05787 11.3605L7.92983 12.3492L7.96808 12.3929L8.00958 12.4334L9.05787 11.3605ZM3.5 6C3.5 4.61929 4.61929 3.5 6 3.5V0.5C2.96243 0.5 0.5 2.96243 0.5 6H3.5ZM3.5 18V6H0.5V18H3.5ZM6 20.5C4.61929 20.5 3.5 19.3807 3.5 18H0.5C0.5 21.0376 2.96243 23.5 6 23.5V20.5ZM18 20.5H6V23.5H18V20.5ZM20.5 18C20.5 19.3807 19.3807 20.5 18 20.5V23.5C21.0376 23.5 23.5 21.0376 23.5 18H20.5ZM20.5 6V18H23.5V6H20.5ZM18 3.5C19.3807 3.5 20.5 4.61929 20.5 6H23.5C23.5 2.96243 21.0376 0.5 18 0.5V3.5ZM6 3.5H18V0.5H6V3.5ZM14.9555 7.26062L9.93809 12.1743L12.0372 14.3177L17.0545 9.40397L14.9555 7.26062ZM16.8295 6.5C16.1353 6.5 15.4625 6.76809 14.9599 7.25629L17.0501 9.4083C16.9857 9.47084 16.9058 9.5 16.8295 9.5V6.5ZM18.6991 7.25629C18.1965 6.76809 17.5237 6.5 16.8295 6.5V9.5C16.7532 9.5 16.6733 9.47083 16.609 9.4083L18.6991 7.25629ZM19.2899 8.11582C19.1515 7.79131 18.9497 7.49911 18.6979 7.25512L16.6102 9.40948C16.5776 9.37795 16.5499 9.33852 16.5303 9.29251L19.2899 8.11582ZM19.5 9.14363C19.5 8.78984 19.4283 8.44042 19.2899 8.11583L16.5303 9.2925C16.5106 9.24642 16.5 9.19571 16.5 9.14363H19.5ZM19.2899 10.1714C19.4283 9.84684 19.5 9.49742 19.5 9.14363H16.5C16.5 9.09155 16.5106 9.04084 16.5303 8.99476L19.2899 10.1714ZM18.6979 11.0321C18.9497 10.7882 19.1515 10.496 19.2899 10.1714L16.5303 8.99475C16.5499 8.94874 16.5776 8.90931 16.6102 8.87779L18.6979 11.0321ZM12.8546 16.7415L18.7023 11.0279L16.6058 8.88207L10.758 14.5957L12.8546 16.7415ZM10.9938 17.5C11.6832 17.4971 12.3505 17.23 12.8502 16.7458L10.7624 14.5914C10.8264 14.5294 10.9057 14.5003 10.9815 14.5L10.9938 17.5ZM9.98265 17.3083C10.3053 17.4371 10.6495 17.5019 10.9961 17.5L10.9792 14.5C11.0179 14.4998 11.057 14.507 11.0946 14.522L9.98265 17.3083ZM9.11335 16.7457C9.36428 16.9889 9.65998 17.1795 9.98264 17.3083L11.0946 14.522C11.1323 14.537 11.1688 14.5601 11.2011 14.5914L9.11335 16.7457ZM6.35825 14.0424L9.10669 16.7393L11.2078 14.5979L8.45937 11.9011L6.35825 14.0424ZM5.77251 13.2671C5.93581 13.5969 6.16585 13.8876 6.44622 14.1222L8.37139 11.8214C8.40691 11.8511 8.43807 11.8896 8.46098 11.9359L5.77251 13.2671ZM5.50204 12.2072C5.51663 12.5763 5.60915 12.9372 5.77251 13.2671L8.46097 11.9359C8.48393 11.9822 8.49755 12.0343 8.4997 12.0887L5.50204 12.2072ZM5.68834 11.1287C5.55119 11.4708 5.48745 11.8381 5.50204 12.2072L8.4997 12.0887C8.50185 12.143 8.49239 12.1965 8.47284 12.2452L5.68834 11.1287ZM6.29426 10.2229C6.03242 10.4787 5.82545 10.7868 5.68834 11.1287L8.47284 12.2452C8.45332 12.2939 8.42472 12.3356 8.39084 12.3687L6.29426 10.2229ZM7.20669 9.63895C6.86699 9.76898 6.55602 9.96714 6.29427 10.2229L8.39084 12.3687C8.35704 12.4017 8.31869 12.4256 8.27915 12.4407L7.20669 9.63895ZM8.27126 9.463C7.90862 9.44932 7.54631 9.50894 7.20668 9.63895L8.27916 12.4407C8.23969 12.4558 8.19862 12.4624 8.15812 12.4609L8.27126 9.463ZM9.31995 9.71903C8.99086 9.56347 8.6339 9.47669 8.27126 9.463L8.15812 12.4609C8.11761 12.4593 8.07674 12.4497 8.03785 12.4313L9.31995 9.71903ZM10.1859 10.3718C9.94437 10.0962 9.64912 9.87463 9.31995 9.71903L8.03785 12.4313C7.99889 12.4128 7.96168 12.3856 7.92983 12.3492L10.1859 10.3718ZM12.0359 12.1731L10.1062 10.2876L8.00958 12.4334L9.93934 14.3189L12.0359 12.1731Z" fill="#DFE8F9" mask="url(#path-1-inside-1_246_19227)"/>
</svg>
