<svg width="200" height="200" viewBox="0 0 200 200" fill="none" xmlns="http://www.w3.org/2000/svg">
<circle cx="100" cy="100" r="100" fill="#505050"/>
<path d="M124.781 101.682C128.85 98.1504 132.113 93.7821 134.35 88.8737C136.586 83.9654 137.744 78.6319 137.744 73.2353C137.744 63.0947 133.727 53.3694 126.577 46.1989C119.427 39.0283 109.73 35 99.6188 35C89.5074 35 79.8101 39.0283 72.6603 46.1989C65.5105 53.3694 61.4938 63.0947 61.4938 73.2353C61.5408 78.6615 62.7577 84.0133 65.061 88.9236C67.3643 93.8338 70.6994 98.1863 74.8375 101.682C64.1636 106.53 55.1075 114.358 48.7522 124.23C42.3969 134.103 39.0112 145.602 39 157.353C39 159.381 39.8033 161.326 41.2333 162.76C42.6633 164.194 44.6027 165 46.625 165C48.6473 165 50.5867 164.194 52.0167 162.76C53.4467 161.326 54.25 159.381 54.25 157.353C54.25 145.184 59.0701 133.514 67.6499 124.909C76.2297 116.305 87.8664 111.471 100 111.471C112.134 111.471 123.77 116.305 132.35 124.909C140.93 133.514 145.75 145.184 145.75 157.353C145.75 159.381 146.553 161.326 147.983 162.76C149.413 164.194 151.353 165 153.375 165C155.397 165 157.337 164.194 158.767 162.76C160.197 161.326 161 159.381 161 157.353C160.956 145.56 157.514 134.031 151.088 124.154C144.662 114.277 135.526 106.473 124.781 101.682ZM99.6188 96.1765C95.0945 96.1765 90.6719 94.831 86.9101 92.3102C83.1483 89.7894 80.2164 86.2065 78.485 82.0145C76.7537 77.8225 76.3007 73.2098 77.1833 68.7597C78.0659 64.3095 80.2446 60.2218 83.4437 57.0134C86.6428 53.8051 90.7187 51.6201 95.1561 50.7349C99.5934 49.8497 104.193 50.304 108.373 52.0404C112.552 53.7768 116.125 56.7172 118.639 60.4899C121.152 64.2625 122.494 68.698 122.494 73.2353C122.494 79.3197 120.084 85.1549 115.794 89.4572C111.504 93.7595 105.686 96.1765 99.6188 96.1765Z" fill="#787878"/>
</svg>
