<svg width="40" height="40" viewBox="0 0 40 40" fill="none" xmlns="http://www.w3.org/2000/svg">
<rect width="40" height="40" rx="20" fill="#D9E6FF" fill-opacity="0.1"/>
<path d="M27.7776 12.7778H20.7998L20.4442 11.6667C20.2137 11.0147 19.7862 10.4506 19.2208 10.0524C18.6554 9.65424 17.9802 9.44178 17.2887 9.44444H12.222C11.338 9.44444 10.4901 9.79563 9.86498 10.4208C9.23986 11.0459 8.88867 11.8937 8.88867 12.7778V27.2222C8.88867 28.1063 9.23986 28.9541 9.86498 29.5792C10.4901 30.2044 11.338 30.5556 12.222 30.5556H27.7776C28.6616 30.5556 29.5095 30.2044 30.1346 29.5792C30.7597 28.9541 31.1109 28.1063 31.1109 27.2222V16.1111C31.1109 15.2271 30.7597 14.3792 30.1346 13.7541C29.5095 13.129 28.6616 12.7778 27.7776 12.7778ZM28.8887 27.2222C28.8887 27.5169 28.7716 27.7995 28.5632 28.0079C28.3549 28.2163 28.0722 28.3333 27.7776 28.3333H12.222C11.9273 28.3333 11.6447 28.2163 11.4363 28.0079C11.228 27.7995 11.1109 27.5169 11.1109 27.2222V12.7778C11.1109 12.4831 11.228 12.2005 11.4363 11.9921C11.6447 11.7837 11.9273 11.6667 12.222 11.6667H17.2887C17.5216 11.6661 17.7488 11.7387 17.9383 11.8743C18.1277 12.0099 18.2697 12.2015 18.3442 12.4222L18.9442 14.2444C19.0188 14.4651 19.1608 14.6568 19.3502 14.7924C19.5396 14.928 19.7668 15.0006 19.9998 15H27.7776C28.0722 15 28.3549 15.1171 28.5632 15.3254C28.7716 15.5338 28.8887 15.8164 28.8887 16.1111V27.2222Z" fill="#D9E6FF"/>
</svg>
