<svg width="18" height="18" viewBox="0 0 18 18" fill="none" xmlns="http://www.w3.org/2000/svg">
<path d="M11.7829 6.21786C11.7131 6.14757 11.6302 6.09177 11.5388 6.0537C11.4474 6.01562 11.3494 5.99602 11.2504 5.99602C11.1514 5.99602 11.0533 6.01562 10.9619 6.0537C10.8705 6.09177 10.7876 6.14757 10.7179 6.21786L9.00036 7.94286L7.28286 6.21786C7.14164 6.07664 6.95009 5.9973 6.75036 5.9973C6.55064 5.9973 6.35909 6.07664 6.21786 6.21786C6.07664 6.35909 5.9973 6.55064 5.9973 6.75036C5.9973 6.95009 6.07664 7.14164 6.21786 7.28286L7.94286 9.00036L6.21786 10.7179C6.14757 10.7876 6.09177 10.8705 6.0537 10.9619C6.01562 11.0533 5.99602 11.1514 5.99602 11.2504C5.99602 11.3494 6.01562 11.4474 6.0537 11.5388C6.09177 11.6302 6.14757 11.7131 6.21786 11.7829C6.28759 11.8532 6.37054 11.909 6.46193 11.947C6.55333 11.9851 6.65136 12.0047 6.75036 12.0047C6.84937 12.0047 6.9474 11.9851 7.0388 11.947C7.13019 11.909 7.21314 11.8532 7.28286 11.7829L9.00036 10.0579L10.7179 11.7829C10.7876 11.8532 10.8705 11.909 10.9619 11.947C11.0533 11.9851 11.1514 12.0047 11.2504 12.0047C11.3494 12.0047 11.4474 11.9851 11.5388 11.947C11.6302 11.909 11.7131 11.8532 11.7829 11.7829C11.8532 11.7131 11.909 11.6302 11.947 11.5388C11.9851 11.4474 12.0047 11.3494 12.0047 11.2504C12.0047 11.1514 11.9851 11.0533 11.947 10.9619C11.909 10.8705 11.8532 10.7876 11.7829 10.7179L10.0579 9.00036L11.7829 7.28286C11.8532 7.21314 11.909 7.13019 11.947 7.0388C11.9851 6.9474 12.0047 6.84937 12.0047 6.75036C12.0047 6.65136 11.9851 6.55333 11.947 6.46193C11.909 6.37054 11.8532 6.28759 11.7829 6.21786ZM14.3029 3.69786C13.611 2.98154 12.7834 2.41017 11.8684 2.0171C10.9534 1.62404 9.96922 1.41714 8.97337 1.40849C7.97753 1.39983 6.98993 1.5896 6.06821 1.9667C5.14649 2.34381 4.3091 2.90071 3.6049 3.6049C2.90071 4.3091 2.34381 5.14649 1.9667 6.06821C1.5896 6.98993 1.39983 7.97753 1.40849 8.97337C1.41714 9.96922 1.62404 10.9534 2.0171 11.8684C2.41017 12.7834 2.98154 13.611 3.69786 14.3029C4.38972 15.0192 5.2173 15.5906 6.13233 15.9836C7.04736 16.3767 8.03151 16.5836 9.02736 16.5922C10.0232 16.6009 11.0108 16.4111 11.9325 16.034C12.8542 15.6569 13.6916 15.1 14.3958 14.3958C15.1 13.6916 15.6569 12.8542 16.034 11.9325C16.4111 11.0108 16.6009 10.0232 16.5922 9.02736C16.5836 8.03151 16.3767 7.04736 15.9836 6.13233C15.5906 5.2173 15.0192 4.38972 14.3029 3.69786ZM13.2454 13.2454C12.2644 14.2274 10.9733 14.839 9.59196 14.9758C8.21065 15.1127 6.82462 14.7664 5.67001 13.9959C4.51539 13.2255 3.66363 12.0785 3.25984 10.7505C2.85606 9.42243 2.92522 7.99547 3.45555 6.7127C3.98588 5.42993 4.94457 4.37073 6.16828 3.71554C7.392 3.06035 8.80502 2.84971 10.1666 3.11952C11.5282 3.38933 12.7541 4.12288 13.6355 5.19521C14.5169 6.26754 14.9993 7.61229 15.0004 9.00036C15.003 9.78883 14.8493 10.57 14.5481 11.2987C14.2468 12.0273 13.804 12.689 13.2454 13.2454Z" fill="white"/>
</svg>
