<svg width="18" height="18" viewBox="0 0 18 18" fill="none" xmlns="http://www.w3.org/2000/svg">
<path fill-rule="evenodd" clip-rule="evenodd" d="M2.10114 8.57743C2.7064 7.37149 4.77744 4 9.01457 4C13.2481 4 15.3301 7.36582 15.9412 8.57438C16.0779 8.84471 16.0779 9.15529 15.9412 9.42562C15.3301 10.6342 13.2481 14 9.01457 14C4.77744 14 2.7064 10.6285 2.10114 9.42257C1.96629 9.1539 1.96629 8.8461 2.10114 8.57743ZM11.5943 9.00081C11.5943 10.5349 10.4392 11.7786 9.01434 11.7786C7.58946 11.7786 6.43436 10.5349 6.43436 9.00081C6.43436 7.46669 7.58946 6.22304 9.01434 6.22304C10.4392 6.22304 11.5943 7.46669 11.5943 9.00081Z" fill="#999999"/>
</svg>
