<svg width="24" height="25" viewBox="0 0 24 25" fill="none" xmlns="http://www.w3.org/2000/svg">
<path d="M16 20.5H8C7.20435 20.5 6.44129 20.1839 5.87868 19.6213C5.31607 19.0587 5 18.2956 5 17.5V7.5C5 7.23478 4.89464 6.98043 4.70711 6.79289C4.51957 6.60536 4.26522 6.5 4 6.5C3.73478 6.5 3.48043 6.60536 3.29289 6.79289C3.10536 6.98043 3 7.23478 3 7.5V17.5C3 18.8261 3.52678 20.0979 4.46447 21.0355C5.40215 21.9732 6.67392 22.5 8 22.5H16C16.2652 22.5 16.5196 22.3946 16.7071 22.2071C16.8946 22.0196 17 21.7652 17 21.5C17 21.2348 16.8946 20.9804 16.7071 20.7929C16.5196 20.6054 16.2652 20.5 16 20.5ZM21 9.44C20.9896 9.34813 20.9695 9.25763 20.94 9.17V9.08C20.8919 8.97718 20.8278 8.88267 20.75 8.8L14.75 2.8C14.6673 2.72222 14.5728 2.65808 14.47 2.61H14.38L14.06 2.5H10C9.20435 2.5 8.44129 2.81607 7.87868 3.37868C7.31607 3.94129 7 4.70435 7 5.5V15.5C7 16.2956 7.31607 17.0587 7.87868 17.6213C8.44129 18.1839 9.20435 18.5 10 18.5H18C18.7956 18.5 19.5587 18.1839 20.1213 17.6213C20.6839 17.0587 21 16.2956 21 15.5V9.5C21 9.5 21 9.5 21 9.44ZM15 5.91L17.59 8.5H16C15.7348 8.5 15.4804 8.39464 15.2929 8.20711C15.1054 8.01957 15 7.76522 15 7.5V5.91ZM19 15.5C19 15.7652 18.8946 16.0196 18.7071 16.2071C18.5196 16.3946 18.2652 16.5 18 16.5H10C9.73478 16.5 9.48043 16.3946 9.29289 16.2071C9.10536 16.0196 9 15.7652 9 15.5V5.5C9 5.23478 9.10536 4.98043 9.29289 4.79289C9.48043 4.60536 9.73478 4.5 10 4.5H13V7.5C13 8.29565 13.3161 9.05871 13.8787 9.62132C14.4413 10.1839 15.2044 10.5 16 10.5H19V15.5Z" fill="#D9E6FF"/>
</svg>
