<svg width="20" height="20" viewBox="0 0 20 20" fill="none" xmlns="http://www.w3.org/2000/svg">
<path d="M12.9996 16.8004H6.59961C5.96309 16.8004 5.35264 16.5475 4.90255 16.0974C4.45247 15.6474 4.19961 15.0369 4.19961 14.4004V6.40039C4.19961 6.18822 4.11532 5.98473 3.96529 5.83471C3.81527 5.68468 3.61178 5.60039 3.39961 5.60039C3.18744 5.60039 2.98395 5.68468 2.83392 5.83471C2.68389 5.98473 2.59961 6.18822 2.59961 6.40039V14.4004C2.59961 15.4613 3.02104 16.4787 3.77118 17.2288C4.52133 17.979 5.53874 18.4004 6.59961 18.4004H12.9996C13.2118 18.4004 13.4153 18.3161 13.5653 18.1661C13.7153 18.016 13.7996 17.8126 13.7996 17.6004C13.7996 17.3882 13.7153 17.1847 13.5653 17.0347C13.4153 16.8847 13.2118 16.8004 12.9996 16.8004ZM16.9996 7.95239C16.9913 7.8789 16.9752 7.8065 16.9516 7.73639V7.66439C16.9131 7.58213 16.8618 7.50652 16.7996 7.44039L11.9996 2.64039C11.9335 2.57816 11.8579 2.52686 11.7756 2.48839H11.7036L11.4476 2.40039H8.19961C7.56309 2.40039 6.95264 2.65325 6.50255 3.10333C6.05247 3.55342 5.79961 4.16387 5.79961 4.80039V12.8004C5.79961 13.4369 6.05247 14.0474 6.50255 14.4974C6.95264 14.9475 7.56309 15.2004 8.19961 15.2004H14.5996C15.2361 15.2004 15.8466 14.9475 16.2967 14.4974C16.7468 14.0474 16.9996 13.4369 16.9996 12.8004V8.00039C16.9996 8.00039 16.9996 8.00039 16.9996 7.95239ZM12.1996 5.12839L14.2716 7.20039H12.9996C12.7874 7.20039 12.584 7.11611 12.4339 6.96608C12.2839 6.81605 12.1996 6.61256 12.1996 6.40039V5.12839ZM15.3996 12.8004C15.3996 13.0126 15.3153 13.216 15.1653 13.3661C15.0153 13.5161 14.8118 13.6004 14.5996 13.6004H8.19961C7.98744 13.6004 7.78395 13.5161 7.63392 13.3661C7.4839 13.216 7.39961 13.0126 7.39961 12.8004V4.80039C7.39961 4.58822 7.4839 4.38473 7.63392 4.23471C7.78395 4.08468 7.98744 4.00039 8.19961 4.00039H10.5996V6.40039C10.5996 7.03691 10.8525 7.64736 11.3026 8.09745C11.7526 8.54753 12.3631 8.80039 12.9996 8.80039H15.3996V12.8004Z" fill="#D9E6FF"/>
</svg>
