<svg width="24" height="24" viewBox="0 0 24 24" fill="none" xmlns="http://www.w3.org/2000/svg">
<path d="M9.06562 20.1704C9.61791 20.1704 10.0656 19.7227 10.0656 19.1704C10.0656 18.6181 9.61791 18.1704 9.06562 18.1704V20.1704ZM4.26621 15.9706L3.26621 15.9706L4.26621 15.9706ZM5.26562 2.40035C5.2656 1.84806 4.81787 1.40037 4.26558 1.40039C3.7133 1.40041 3.2656 1.84815 3.26562 2.40043L5.26562 2.40035ZM9.06562 8.31726C9.61791 8.31726 10.0656 7.86954 10.0656 7.31726C10.0656 6.76498 9.61791 6.31726 9.06562 6.31726V8.31726ZM18.6656 9.86706L18.6656 8.86706L18.6656 9.86706ZM13.8656 9.86704L13.8656 10.867H13.8656L13.8656 9.86704ZM19.7325 2.40039L20.7325 2.40041C20.7325 2.13519 20.6271 1.88083 20.4396 1.69329C20.252 1.50575 19.9977 1.40039 19.7325 1.40039V2.40039ZM19.7323 8.80042L20.7323 8.80044V8.80044L19.7323 8.80042ZM12.799 8.80036L11.799 8.80035V8.80036L12.799 8.80036ZM12.799 4.53372L12.1346 3.78632C11.9211 3.97609 11.799 4.24808 11.799 4.53372L12.799 4.53372ZM15.199 2.40039V1.40039C14.954 1.40039 14.7176 1.49027 14.5346 1.65299L15.199 2.40039ZM18.6656 21.6004L18.6656 20.6004L18.6656 21.6004ZM13.8656 21.6004L13.8656 22.6004L13.8656 21.6004ZM19.7325 14.1337L20.7325 14.1337C20.7325 13.8685 20.6271 13.6142 20.4396 13.4266C20.252 13.2391 19.9977 13.1337 19.7325 13.1337V14.1337ZM19.7323 20.5337L20.7323 20.5338V20.5338L19.7323 20.5337ZM12.799 20.5337L11.799 20.5337V20.5337L12.799 20.5337ZM12.799 16.2671L12.1346 15.5197C11.9211 15.7094 11.799 15.9814 11.799 16.267L12.799 16.2671ZM15.199 14.1337V13.1337C14.954 13.1337 14.7176 13.2236 14.5346 13.3863L15.199 14.1337ZM9.06562 18.1704H7.46621V20.1704H9.06562V18.1704ZM5.26621 15.9705L5.26584 7.31722L3.26584 7.3173L3.26621 15.9706L5.26621 15.9705ZM5.26584 7.31722L5.26562 2.40035L3.26562 2.40043L3.26584 7.3173L5.26584 7.31722ZM9.06562 6.31726H4.26584V8.31726H9.06562V6.31726ZM7.46621 18.1704C6.25122 18.1704 5.26626 17.1855 5.26621 15.9705L3.26621 15.9706C3.26631 18.2901 5.14668 20.1704 7.46621 20.1704V18.1704ZM18.6656 8.86706L13.8656 8.86704L13.8656 10.867L18.6656 10.8671L18.6656 8.86706ZM18.7325 2.40037L18.7323 8.80039L20.7323 8.80044L20.7325 2.40041L18.7325 2.40037ZM18.6656 10.8671C19.807 10.8671 20.7323 9.94181 20.7323 8.80044L18.7323 8.80039C18.7323 8.83721 18.7025 8.86706 18.6656 8.86706L18.6656 10.8671ZM11.799 8.80036C11.799 9.94175 12.7242 10.867 13.8656 10.867L13.8656 8.86704C13.8288 8.86704 13.799 8.83719 13.799 8.80037L11.799 8.80036ZM13.799 8.80037L13.799 4.53373L11.799 4.53372L11.799 8.80035L13.799 8.80037ZM15.199 3.40039H19.7325V1.40039H15.199V3.40039ZM14.5346 1.65299L12.1346 3.78632L13.4634 5.28113L15.8633 3.1478L14.5346 1.65299ZM18.6656 20.6004L13.8656 20.6004L13.8656 22.6004L18.6656 22.6004L18.6656 20.6004ZM18.7325 14.1337L18.7323 20.5337L20.7323 20.5338L20.7325 14.1337L18.7325 14.1337ZM18.6656 22.6004C19.807 22.6004 20.7323 21.6751 20.7323 20.5338L18.7323 20.5337C18.7323 20.5705 18.7025 20.6004 18.6656 20.6004L18.6656 22.6004ZM11.799 20.5337C11.799 21.6751 12.7242 22.6004 13.8656 22.6004L13.8656 20.6004C13.8288 20.6004 13.799 20.5705 13.799 20.5337L11.799 20.5337ZM13.799 20.5337L13.799 16.2671L11.799 16.267L11.799 20.5337L13.799 20.5337ZM15.199 15.1337H19.7325V13.1337H15.199V15.1337ZM14.5346 13.3863L12.1346 15.5197L13.4634 17.0145L15.8633 14.8811L14.5346 13.3863Z" fill="#DFE8F9"/>
</svg>
