<svg width="24" height="24" viewBox="0 0 24 24" fill="none" xmlns="http://www.w3.org/2000/svg">
<path d="M2.8541 2.86025C3.23615 2.47082 3.72064 2.19747 4.25152 2.07183C4.78241 1.94619 5.33802 1.97338 5.8541 2.15025L20.0041 6.88025C20.5748 7.06705 21.0734 7.4264 21.4311 7.90869C21.7889 8.39098 21.9881 8.97242 22.0013 9.57276C22.0144 10.1731 21.8409 10.7627 21.5047 11.2602C21.1684 11.7577 20.686 12.1386 20.1241 12.3503L14.8841 14.3503C14.7648 14.3959 14.6561 14.4656 14.565 14.5551C14.4738 14.6445 14.402 14.7518 14.3541 14.8703L12.3541 20.1203C12.1505 20.6742 11.7811 21.152 11.2961 21.4884C10.8112 21.8248 10.2343 22.0036 9.6441 22.0003H9.5741C8.97308 21.9893 8.39055 21.7906 7.90815 21.4319C7.42576 21.0733 7.06768 20.5727 6.8841 20.0003L2.1541 5.83025C1.98208 5.31919 1.95647 4.7702 2.08018 4.24534C2.20388 3.72048 2.47196 3.24071 2.8541 2.86025ZM4.0041 5.20025L8.7841 19.3803C8.8396 19.5597 8.95108 19.7167 9.10223 19.8283C9.25337 19.9398 9.43624 20.0001 9.6241 20.0003C9.81085 20.0033 9.9941 19.9495 10.1495 19.8459C10.3049 19.7423 10.4251 19.5938 10.4941 19.4203L12.4941 14.1703C12.6391 13.7888 12.8627 13.4421 13.1504 13.1526C13.4381 12.8632 13.7835 12.6375 14.1641 12.4903L19.4141 10.4903C19.5912 10.4254 19.7434 10.3065 19.8493 10.1503C19.9552 9.99423 20.0093 9.8088 20.0041 9.62025C20.0039 9.4324 19.9437 9.24952 19.8321 9.09838C19.7206 8.94724 19.5636 8.83576 19.3841 8.78025L5.2041 4.05025C5.0413 3.9839 4.86276 3.96613 4.69007 3.99908C4.51738 4.03203 4.35794 4.1143 4.23101 4.23594C4.10408 4.35758 4.0151 4.51338 3.97484 4.68451C3.93457 4.85565 3.94473 5.03478 4.0041 5.20025Z" fill="#DFE8F9"/>
</svg>
