<svg width="24" height="25" viewBox="0 0 24 25" fill="none" xmlns="http://www.w3.org/2000/svg">
<g id="Frame">
<path id="Vector" d="M16.2911 9.21L18.5911 11.5L9.00108 11.5C8.73586 11.5 8.48151 11.6054 8.29397 11.7929C8.10644 11.9804 8.00108 12.2348 8.00108 12.5C8.00108 12.7652 8.10644 13.0196 8.29397 13.2071C8.48151 13.3946 8.73586 13.5 9.00108 13.5L18.5911 13.5L16.2911 15.79C16.1974 15.883 16.123 15.9936 16.0722 16.1154C16.0214 16.2373 15.9953 16.368 15.9953 16.5C15.9953 16.632 16.0214 16.7627 16.0722 16.8846C16.123 17.0064 16.1974 17.117 16.2911 17.21C16.384 17.3037 16.4946 17.3781 16.6165 17.4289C16.7384 17.4797 16.8691 17.5058 17.0011 17.5058C17.1331 17.5058 17.2638 17.4797 17.3857 17.4289C17.5075 17.3781 17.6181 17.3037 17.7111 17.21L21.7111 13.21C21.8021 13.1149 21.8735 13.0028 21.9211 12.88C22.0211 12.6365 22.0211 12.3635 21.9211 12.12C21.8735 11.9972 21.8021 11.8851 21.7111 11.79L17.7111 7.79C17.6178 7.69676 17.5072 7.6228 17.3853 7.57234C17.2635 7.52188 17.1329 7.49591 17.0011 7.49591C16.8692 7.49591 16.7387 7.52188 16.6168 7.57234C16.495 7.6228 16.3843 7.69676 16.2911 7.79C16.1978 7.88324 16.1239 7.99393 16.0734 8.11575C16.023 8.23757 15.997 8.36814 15.997 8.5C15.997 8.63186 16.023 8.76243 16.0734 8.88425C16.1239 9.00607 16.1978 9.11676 16.2911 9.21ZM12.0011 21.5C12.0011 21.2348 11.8957 20.9804 11.7082 20.7929C11.5207 20.6054 11.2663 20.5 11.0011 20.5H5.00108C4.73586 20.5 4.48151 20.3946 4.29397 20.2071C4.10644 20.0196 4.00108 19.7652 4.00108 19.5V5.5C4.00108 5.23478 4.10644 4.98043 4.29397 4.79289C4.48151 4.60536 4.73586 4.5 5.00108 4.5L11.0011 4.5C11.2663 4.5 11.5207 4.39464 11.7082 4.20711C11.8957 4.01957 12.0011 3.76522 12.0011 3.5C12.0011 3.23478 11.8957 2.98043 11.7082 2.79289C11.5207 2.60536 11.2663 2.5 11.0011 2.5L5.00108 2.5C4.20543 2.5 3.44237 2.81607 2.87976 3.37868C2.31715 3.94129 2.00108 4.70435 2.00108 5.5V19.5C2.00108 20.2956 2.31715 21.0587 2.87976 21.6213C3.44237 22.1839 4.20543 22.5 5.00108 22.5H11.0011C11.2663 22.5 11.5207 22.3946 11.7082 22.2071C11.8957 22.0196 12.0011 21.7652 12.0011 21.5Z" fill="#D9E6FF"/>
</g>
</svg>
