<svg width="36" height="36" viewBox="0 0 36 36" fill="none" xmlns="http://www.w3.org/2000/svg">
<rect width="36" height="36" rx="18" fill="#0D409D"/>
<path d="M23.625 6H12.375C11.4799 6 10.6214 6.37928 9.98851 7.05442C9.35558 7.72955 9 8.64522 9 9.6V26.4C9 27.3548 9.35558 28.2705 9.98851 28.9456C10.6214 29.6207 11.4799 30 12.375 30H23.625C24.5201 30 25.3786 29.6207 26.0115 28.9456C26.6444 28.2705 27 27.3548 27 26.4V9.6C27 8.64522 26.6444 7.72955 26.0115 7.05442C25.3786 6.37928 24.5201 6 23.625 6ZM24.75 26.4C24.75 26.7183 24.6315 27.0235 24.4205 27.2485C24.2095 27.4736 23.9234 27.6 23.625 27.6H12.375C12.0766 27.6 11.7905 27.4736 11.5795 27.2485C11.3685 27.0235 11.25 26.7183 11.25 26.4V9.6C11.25 9.28174 11.3685 8.97652 11.5795 8.75147C11.7905 8.52643 12.0766 8.4 12.375 8.4H23.625C23.9234 8.4 24.2095 8.52643 24.4205 8.75147C24.6315 8.97652 24.75 9.28174 24.75 9.6V26.4ZM18.7987 23.148C18.6689 23.0035 18.5071 22.896 18.3283 22.8352C18.1495 22.7744 17.9593 22.7623 17.775 22.8L17.5725 22.872C17.5008 22.8983 17.4327 22.9346 17.37 22.98L17.2013 23.124C17.0988 23.2381 17.0185 23.3727 16.965 23.52C16.8788 23.7385 16.8553 23.9794 16.8974 24.2122C16.9394 24.445 17.0451 24.6593 17.2013 24.828C17.3132 24.9336 17.4381 25.0224 17.5725 25.092C17.7784 25.1824 18.0049 25.2056 18.2232 25.1586C18.4415 25.1116 18.6418 24.9965 18.7987 24.828C19.0039 24.6075 19.1208 24.3106 19.125 24C19.1288 23.8426 19.098 23.6864 19.035 23.544C18.978 23.3986 18.8981 23.2646 18.7987 23.148Z" fill="white"/>
</svg>
