<svg width="20" height="20" viewBox="0 0 20 20" fill="none" xmlns="http://www.w3.org/2000/svg">
<path d="M14.9984 15.7023H5.39844C4.76192 15.7023 4.15147 15.4495 3.70138 14.9994C3.25129 14.5493 2.99844 13.9389 2.99844 13.3023V6.90234C2.99844 6.69017 2.91415 6.48669 2.76412 6.33666C2.61409 6.18663 2.41061 6.10234 2.19844 6.10234C1.98626 6.10234 1.78278 6.18663 1.63275 6.33666C1.48272 6.48669 1.39844 6.69017 1.39844 6.90234V13.3023C1.39844 14.3632 1.81986 15.3806 2.57001 16.1308C2.94144 16.5022 3.3824 16.7968 3.8677 16.9979C4.35301 17.1989 4.87315 17.3023 5.39844 17.3023H14.9984C15.2106 17.3023 15.4141 17.2181 15.5641 17.068C15.7142 16.918 15.7984 16.7145 15.7984 16.5023C15.7984 16.2902 15.7142 16.0867 15.5641 15.9367C15.4141 15.7866 15.2106 15.7023 14.9984 15.7023ZM11.7984 9.30234H8.59844C8.38626 9.30234 8.18278 9.38663 8.03275 9.53666C7.88272 9.68669 7.79844 9.89017 7.79844 10.1023C7.79844 10.3145 7.88272 10.518 8.03275 10.668C8.18278 10.8181 8.38626 10.9023 8.59844 10.9023H11.7984C12.0106 10.9023 12.2141 10.8181 12.3641 10.668C12.5142 10.518 12.5984 10.3145 12.5984 10.1023C12.5984 9.89017 12.5142 9.68669 12.3641 9.53666C12.2141 9.38663 12.0106 9.30234 11.7984 9.30234ZM18.9984 8.45434C18.9901 8.38085 18.974 8.30845 18.9504 8.23834V8.16634C18.912 8.08409 18.8607 8.00848 18.7984 7.94234L13.9984 3.14234C13.9323 3.08012 13.8567 3.02881 13.7744 2.99034H13.7024C13.6212 2.94374 13.5314 2.91382 13.4384 2.90234H6.99844C6.36192 2.90234 5.75147 3.1552 5.30138 3.60529C4.85129 4.05537 4.59844 4.66582 4.59844 5.30234V11.7023C4.59844 12.3389 4.85129 12.9493 5.30138 13.3994C5.75147 13.8495 6.36192 14.1023 6.99844 14.1023H16.5984C17.235 14.1023 17.8454 13.8495 18.2955 13.3994C18.7456 12.9493 18.9984 12.3389 18.9984 11.7023V8.50234C18.9984 8.50234 18.9984 8.50234 18.9984 8.45434ZM14.1984 5.63034L16.2704 7.70234H14.9984C14.7863 7.70234 14.5828 7.61806 14.4328 7.46803C14.2827 7.318 14.1984 7.11452 14.1984 6.90234V5.63034ZM17.3984 11.7023C17.3984 11.9145 17.3142 12.118 17.1641 12.268C17.0141 12.4181 16.8106 12.5023 16.5984 12.5023H6.99844C6.78626 12.5023 6.58278 12.4181 6.43275 12.268C6.28272 12.118 6.19844 11.9145 6.19844 11.7023V5.30234C6.19844 5.09017 6.28272 4.88669 6.43275 4.73666C6.58278 4.58663 6.78626 4.50234 6.99844 4.50234H12.5984V6.90234C12.5984 7.53886 12.8513 8.14931 13.3014 8.5994C13.7515 9.04949 14.3619 9.30234 14.9984 9.30234H17.3984V11.7023ZM8.59844 7.70234H10.1984C10.4106 7.70234 10.6141 7.61806 10.7641 7.46803C10.9142 7.318 10.9984 7.11452 10.9984 6.90234C10.9984 6.69017 10.9142 6.48669 10.7641 6.33666C10.6141 6.18663 10.4106 6.10234 10.1984 6.10234H8.59844C8.38626 6.10234 8.18278 6.18663 8.03275 6.33666C7.88272 6.48669 7.79844 6.69017 7.79844 6.90234C7.79844 7.11452 7.88272 7.318 8.03275 7.46803C8.18278 7.61806 8.38626 7.70234 8.59844 7.70234Z" fill="white"/>
</svg>
