<svg width="24" height="25" viewBox="0 0 24 25" fill="none" xmlns="http://www.w3.org/2000/svg">
<path d="M18 19.5H6C5.20435 19.5 4.44129 19.1839 3.87868 18.6213C3.31607 18.0587 3 17.2956 3 16.5V8.5C3 8.23478 2.89464 7.98043 2.70711 7.79289C2.51957 7.60536 2.26522 7.5 2 7.5C1.73478 7.5 1.48043 7.60536 1.29289 7.79289C1.10536 7.98043 1 8.23478 1 8.5V16.5C1 17.8261 1.52678 19.0979 2.46447 20.0355C2.92876 20.4998 3.47995 20.8681 4.08658 21.1194C4.69321 21.3707 5.34339 21.5 6 21.5H18C18.2652 21.5 18.5196 21.3946 18.7071 21.2071C18.8946 21.0196 19 20.7652 19 20.5C19 20.2348 18.8946 19.9804 18.7071 19.7929C18.5196 19.6054 18.2652 19.5 18 19.5ZM14 11.5H10C9.73478 11.5 9.48043 11.6054 9.29289 11.7929C9.10536 11.9804 9 12.2348 9 12.5C9 12.7652 9.10536 13.0196 9.29289 13.2071C9.48043 13.3946 9.73478 13.5 10 13.5H14C14.2652 13.5 14.5196 13.3946 14.7071 13.2071C14.8946 13.0196 15 12.7652 15 12.5C15 12.2348 14.8946 11.9804 14.7071 11.7929C14.5196 11.6054 14.2652 11.5 14 11.5ZM23 10.44C22.9896 10.3481 22.9695 10.2576 22.94 10.17V10.08C22.8919 9.97718 22.8278 9.88267 22.75 9.8L16.75 3.8C16.6673 3.72222 16.5728 3.65808 16.47 3.61H16.38C16.2784 3.55174 16.1662 3.51434 16.05 3.5H8C7.20435 3.5 6.44129 3.81607 5.87868 4.37868C5.31607 4.94129 5 5.70435 5 6.5V14.5C5 15.2956 5.31607 16.0587 5.87868 16.6213C6.44129 17.1839 7.20435 17.5 8 17.5H20C20.7956 17.5 21.5587 17.1839 22.1213 16.6213C22.6839 16.0587 23 15.2956 23 14.5V10.5C23 10.5 23 10.5 23 10.44ZM17 6.91L19.59 9.5H18C17.7348 9.5 17.4804 9.39464 17.2929 9.20711C17.1054 9.01957 17 8.76522 17 8.5V6.91ZM21 14.5C21 14.7652 20.8946 15.0196 20.7071 15.2071C20.5196 15.3946 20.2652 15.5 20 15.5H8C7.73478 15.5 7.48043 15.3946 7.29289 15.2071C7.10536 15.0196 7 14.7652 7 14.5V6.5C7 6.23478 7.10536 5.98043 7.29289 5.79289C7.48043 5.60536 7.73478 5.5 8 5.5H15V8.5C15 9.29565 15.3161 10.0587 15.8787 10.6213C16.4413 11.1839 17.2044 11.5 18 11.5H21V14.5ZM10 9.5H12C12.2652 9.5 12.5196 9.39464 12.7071 9.20711C12.8946 9.01957 13 8.76522 13 8.5C13 8.23478 12.8946 7.98043 12.7071 7.79289C12.5196 7.60536 12.2652 7.5 12 7.5H10C9.73478 7.5 9.48043 7.60536 9.29289 7.79289C9.10536 7.98043 9 8.23478 9 8.5C9 8.76522 9.10536 9.01957 9.29289 9.20711C9.48043 9.39464 9.73478 9.5 10 9.5Z" fill="white"/>
</svg>
