<svg xmlns="http://www.w3.org/2000/svg" width="20" height="20" viewBox="0 0 20 20" fill="none">
  <path d="M15.7032 3.31868C15.6103 3.2435 15.5017 3.1901 15.3854 3.16241C15.2691 3.13473 15.1481 3.13345 15.0312 3.15868C14.1764 3.33784 13.2939 3.34012 12.4381 3.16539C11.5824 2.99066 10.7714 2.64262 10.0552 2.14268C9.92131 2.04978 9.76221 2 9.59922 2C9.43624 2 9.27714 2.04978 9.14322 2.14268C8.42703 2.64262 7.61608 2.99066 6.76032 3.16539C5.90455 3.34012 5.02207 3.33784 4.16722 3.15868C4.05037 3.13345 3.92936 3.13473 3.81306 3.16241C3.69677 3.1901 3.58816 3.2435 3.49522 3.31868C3.40241 3.39398 3.32764 3.48911 3.27642 3.5971C3.22519 3.70508 3.19882 3.82317 3.19922 3.94268V9.90268C3.19851 11.0497 3.47184 12.1803 3.99645 13.2003C4.52106 14.2202 5.28177 15.1002 6.21522 15.7667L9.13522 17.8467C9.27071 17.9432 9.4329 17.995 9.59922 17.995C9.76555 17.995 9.92773 17.9432 10.0632 17.8467L12.9832 15.7667C13.9167 15.1002 14.6774 14.2202 15.202 13.2003C15.7266 12.1803 15.9999 11.0497 15.9992 9.90268V3.94268C15.9996 3.82317 15.9733 3.70508 15.922 3.5971C15.8708 3.48911 15.796 3.39398 15.7032 3.31868ZM14.3992 9.90268C14.3998 10.7945 14.1875 11.6735 13.7797 12.4667C13.372 13.2599 12.7808 13.9442 12.0552 14.4627L9.59922 16.2147L7.14322 14.4627C6.41765 13.9442 5.82641 13.2599 5.4187 12.4667C5.01099 11.6735 4.79861 10.7945 4.79922 9.90268V4.86268C6.47637 5.00623 8.15606 4.6171 9.59922 3.75068C11.0424 4.6171 12.7221 5.00623 14.3992 4.86268V9.90268Z" fill="#D9E6FF"/>
</svg>