<svg width="20" height="20" viewBox="0 0 20 20" fill="none" xmlns="http://www.w3.org/2000/svg">
<path d="M15.7032 3.72103C15.6103 3.64585 15.5017 3.59245 15.3854 3.56476C15.2691 3.53707 15.1481 3.5358 15.0312 3.56103C14.1764 3.74018 13.2939 3.74247 12.4381 3.56773C11.5824 3.393 10.7714 3.04496 10.0552 2.54503C9.92131 2.45213 9.76221 2.40234 9.59922 2.40234C9.43624 2.40234 9.27714 2.45213 9.14322 2.54503C8.42703 3.04496 7.61608 3.393 6.76032 3.56773C5.90455 3.74247 5.02207 3.74018 4.16722 3.56103C4.05037 3.5358 3.92936 3.53707 3.81306 3.56476C3.69677 3.59245 3.58816 3.64585 3.49522 3.72103C3.40241 3.79632 3.32764 3.89146 3.27642 3.99944C3.22519 4.10742 3.19882 4.22551 3.19922 4.34503V10.305C3.19851 11.452 3.47184 12.5826 3.99645 13.6026C4.52106 14.6226 5.28177 15.5025 6.21522 16.169L9.13522 18.249C9.27071 18.3455 9.4329 18.3973 9.59922 18.3973C9.76555 18.3973 9.92773 18.3455 10.0632 18.249L12.9832 16.169C13.9167 15.5025 14.6774 14.6226 15.202 13.6026C15.7266 12.5826 15.9999 11.452 15.9992 10.305V4.34503C15.9996 4.22551 15.9733 4.10742 15.922 3.99944C15.8708 3.89146 15.796 3.79632 15.7032 3.72103ZM14.3992 10.305C14.3998 11.1968 14.1875 12.0759 13.7797 12.869C13.372 13.6622 12.7808 14.3465 12.0552 14.865L9.59922 16.617L7.14322 14.865C6.41765 14.3465 5.82641 13.6622 5.4187 12.869C5.01099 12.0759 4.79861 11.1968 4.79922 10.305V5.26503C6.47637 5.40857 8.15606 5.01945 9.59922 4.15303C11.0424 5.01945 12.7221 5.40857 14.3992 5.26503V10.305Z" fill="#D9E6FF"/>
</svg>
