<svg width="24" height="25" viewBox="0 0 24 25" fill="none" xmlns="http://www.w3.org/2000/svg">
<path d="M19.63 4.15006C19.5138 4.05609 19.3781 3.98934 19.2327 3.95473C19.0873 3.92012 18.9361 3.91852 18.79 3.95006C17.7214 4.17401 16.6183 4.17686 15.5486 3.95845C14.4789 3.74003 13.4653 3.30498 12.57 2.68006C12.4026 2.56394 12.2037 2.50171 12 2.50171C11.7963 2.50171 11.5974 2.56394 11.43 2.68006C10.5348 3.30498 9.52108 3.74003 8.45137 3.95845C7.38166 4.17686 6.27857 4.17401 5.21001 3.95006C5.06394 3.91852 4.91267 3.92012 4.76731 3.95473C4.62194 3.98934 4.48618 4.05609 4.37001 4.15006C4.25399 4.24418 4.16053 4.3631 4.0965 4.49808C4.03247 4.63306 3.9995 4.78067 4.00001 4.93006V12.3801C3.99912 13.8138 4.34078 15.227 4.99654 16.502C5.6523 17.777 6.60319 18.8769 7.77001 19.7101L11.42 22.3101C11.5894 22.4306 11.7921 22.4954 12 22.4954C12.2079 22.4954 12.4106 22.4306 12.58 22.3101L16.23 19.7101C17.3968 18.8769 18.3477 17.777 19.0035 16.502C19.6592 15.227 20.0009 13.8138 20 12.3801V4.93006C20.0005 4.78067 19.9675 4.63306 19.9035 4.49808C19.8395 4.3631 19.746 4.24418 19.63 4.15006ZM18 12.3801C18.0008 13.4948 17.7353 14.5936 17.2257 15.5851C16.716 16.5765 15.977 17.4319 15.07 18.0801L12 20.2701L8.93001 18.0801C8.02304 17.4319 7.28399 16.5765 6.77435 15.5851C6.26472 14.5936 5.99924 13.4948 6.00001 12.3801V6.08006C8.09643 6.2595 10.196 5.77309 12 4.69006C13.804 5.77309 15.9036 6.2595 18 6.08006V12.3801Z" fill="#D9E6FF"/>
</svg>
