<svg width="24" height="24" viewBox="0 0 24 24" fill="none" xmlns="http://www.w3.org/2000/svg">
<g id="spin=Default">
<path id="Ellipse 1 (Stroke)" fill-rule="evenodd" clip-rule="evenodd" d="M12 4.8C10.576 4.8 9.18393 5.22227 7.9999 6.01342C6.81586 6.80456 5.89302 7.92905 5.34807 9.24468C4.80312 10.5603 4.66054 12.008 4.93835 13.4046C5.21616 14.8013 5.9019 16.0842 6.90883 17.0912C7.91577 18.0981 9.19869 18.7838 10.5954 19.0617C11.992 19.3395 13.4397 19.1969 14.7553 18.6519C16.0709 18.107 17.1954 17.1841 17.9866 16.0001C18.7777 14.8161 19.2 13.424 19.2 12C19.2 11.7791 19.3791 11.6 19.6 11.6C19.8209 11.6 20 11.7791 20 12C20 13.5822 19.5308 15.129 18.6518 16.4446C17.7727 17.7602 16.5233 18.7855 15.0615 19.391C13.5997 19.9965 11.9911 20.155 10.4393 19.8463C8.88743 19.5376 7.46197 18.7757 6.34315 17.6569C5.22433 16.538 4.4624 15.1126 4.15372 13.5607C3.84504 12.0089 4.00347 10.4003 4.60897 8.93853C5.21447 7.47672 6.23985 6.22729 7.55544 5.34824C8.87103 4.46919 10.4178 4 12 4C12.2209 4 12.4 4.17909 12.4 4.4C12.4 4.62091 12.2209 4.8 12 4.8Z" fill="url(#paint0_angular_2876_21185)"/>
</g>
<defs>
<radialGradient id="paint0_angular_2876_21185" cx="0" cy="0" r="1" gradientUnits="userSpaceOnUse" gradientTransform="translate(12 12) rotate(-90.0973) scale(6.17563)">
<stop offset="0.248264" stop-color="white" stop-opacity="0.2"/>
<stop offset="1" stop-color="white"/>
</radialGradient>
</defs>
</svg>
