<svg width="18" height="18" viewBox="0 0 18 18" fill="none" xmlns="http://www.w3.org/2000/svg">
<path d="M8.57784 2.23608C8.76629 1.92131 9.23371 1.92131 9.42216 2.23608L11.4187 5.57088C11.4877 5.68619 11.6034 5.76795 11.7374 5.79619L15.6144 6.61296C15.9804 6.69006 16.1248 7.12254 15.8754 7.39418L13.2323 10.272C13.1409 10.3715 13.0967 10.5038 13.1105 10.6365L13.5101 14.4761C13.5478 14.8385 13.1697 15.1058 12.827 14.9589L9.19701 13.4027C9.07149 13.3489 8.92851 13.3489 8.80299 13.4027L5.17296 14.9589C4.83032 15.1058 4.45216 14.8385 4.48988 14.4761L4.88948 10.6365C4.9033 10.5038 4.85911 10.3715 4.76772 10.272L2.12464 7.39418C1.87516 7.12254 2.0196 6.69006 2.38555 6.61296L6.26255 5.79619C6.39661 5.76795 6.51228 5.68619 6.58132 5.57088L8.57784 2.23608Z" fill="#DFE8F9"/>
</svg>
