<svg width="25" height="24" viewBox="0 0 25 24" fill="none" xmlns="http://www.w3.org/2000/svg">
<path d="M16.8858 5.68L16.8859 5.68009L21.8858 11.68C21.8858 11.68 21.8859 11.6801 21.8859 11.6801C21.9607 11.7699 22.0016 11.8831 22.0016 12C22.0016 12.1169 21.9607 12.2301 21.8859 12.3199C21.8859 12.3199 21.8858 12.32 21.8858 12.32L16.8859 18.3199L16.8858 18.32C16.8388 18.3764 16.7799 18.4218 16.7134 18.4529C16.6468 18.4841 16.5743 18.5001 16.5008 18.5H16.5H5.5C4.83696 18.5 4.20107 18.2366 3.73223 17.7678C3.26339 17.2989 3 16.663 3 16V8C3 7.33696 3.26339 6.70108 3.73223 6.23223C4.20107 5.76339 4.83696 5.5 5.5 5.5L16.5 5.5L16.5008 5.5C16.5743 5.49988 16.6468 5.51595 16.7134 5.54706C16.7799 5.57817 16.8388 5.62356 16.8858 5.68Z" fill="#F53333" stroke="#F53333"/>
</svg>
