<svg width="25" height="24" viewBox="0 0 25 24" fill="none" xmlns="http://www.w3.org/2000/svg">
<g id="u:cancel">
<path id="Vector" d="M22.27 11.36L17.27 5.36C17.176 5.24712 17.0582 5.15634 16.9252 5.09412C16.7921 5.0319 16.6469 4.99976 16.5 5H5.5C4.70435 5 3.94129 5.31607 3.37868 5.87868C2.81607 6.44129 2.5 7.20435 2.5 8V16C2.5 16.7957 2.81607 17.5587 3.37868 18.1213C3.94129 18.6839 4.70435 19 5.5 19H16.5C16.6469 19.0002 16.7921 18.9681 16.9252 18.9059C17.0582 18.8437 17.176 18.7529 17.27 18.64L22.27 12.64C22.4197 12.4603 22.5016 12.2339 22.5016 12C22.5016 11.7661 22.4197 11.5397 22.27 11.36Z" fill="#007F7F"/>
</g>
</svg>
