<svg width="36" height="36" viewBox="0 0 36 36" fill="none" xmlns="http://www.w3.org/2000/svg">
<rect width="36" height="36" rx="18" fill="#007F7F"/>
<path d="M26.4 8.5H9.6C8.64522 8.5 7.72955 8.86875 7.05442 9.52513C6.37928 10.1815 6 11.0717 6 12V21.3333C6 22.2616 6.37928 23.1518 7.05442 23.8082C7.72955 24.4646 8.64522 24.8333 9.6 24.8333H16.8V27.1667H12C11.6817 27.1667 11.3765 27.2896 11.1515 27.5084C10.9264 27.7272 10.8 28.0239 10.8 28.3333C10.8 28.6428 10.9264 28.9395 11.1515 29.1583C11.3765 29.3771 11.6817 29.5 12 29.5H24C24.3183 29.5 24.6235 29.3771 24.8485 29.1583C25.0736 28.9395 25.2 28.6428 25.2 28.3333C25.2 28.0239 25.0736 27.7272 24.8485 27.5084C24.6235 27.2896 24.3183 27.1667 24 27.1667H19.2V24.8333H26.4C27.3548 24.8333 28.2705 24.4646 28.9456 23.8082C29.6207 23.1518 30 22.2616 30 21.3333V12C30 11.0717 29.6207 10.1815 28.9456 9.52513C28.2705 8.86875 27.3548 8.5 26.4 8.5ZM27.6 21.3333C27.6 21.6428 27.4736 21.9395 27.2485 22.1583C27.0235 22.3771 26.7183 22.5 26.4 22.5H9.6C9.28174 22.5 8.97652 22.3771 8.75147 22.1583C8.52643 21.9395 8.4 21.6428 8.4 21.3333V12C8.4 11.6906 8.52643 11.3938 8.75147 11.175C8.97652 10.9562 9.28174 10.8333 9.6 10.8333H26.4C26.7183 10.8333 27.0235 10.9562 27.2485 11.175C27.4736 11.3938 27.6 11.6906 27.6 12V21.3333Z" fill="white"/>
</svg>
