<svg width="18" height="19" viewBox="0 0 18 19" fill="none" xmlns="http://www.w3.org/2000/svg">
<path d="M9 5.75C8.80109 5.75 8.61033 5.82902 8.46967 5.96967C8.32902 6.11032 8.25 6.30109 8.25 6.5V9.5C8.25 9.69891 8.32902 9.88968 8.46967 10.0303C8.61033 10.171 8.80109 10.25 9 10.25C9.19892 10.25 9.38968 10.171 9.53033 10.0303C9.67099 9.88968 9.75 9.69891 9.75 9.5V6.5C9.75 6.30109 9.67099 6.11032 9.53033 5.96967C9.38968 5.82902 9.19892 5.75 9 5.75ZM9.69 12.215C9.67359 12.1672 9.65089 12.1218 9.6225 12.08L9.5325 11.9675C9.42704 11.8634 9.29311 11.7929 9.14761 11.7649C9.00212 11.7369 8.85159 11.7526 8.715 11.81C8.62411 11.848 8.5404 11.9013 8.4675 11.9675C8.39799 12.0376 8.343 12.1207 8.30568 12.2121C8.26835 12.3034 8.24943 12.4013 8.25 12.5C8.25119 12.598 8.27157 12.6948 8.31 12.785C8.34369 12.8781 8.39743 12.9626 8.46742 13.0326C8.53741 13.1026 8.62193 13.1563 8.715 13.19C8.80478 13.2297 8.90185 13.2502 9 13.2502C9.09816 13.2502 9.19523 13.2297 9.285 13.19C9.37808 13.1563 9.4626 13.1026 9.53259 13.0326C9.60258 12.9626 9.65632 12.8781 9.69 12.785C9.72843 12.6948 9.74882 12.598 9.75 12.5C9.75368 12.4501 9.75368 12.3999 9.75 12.35C9.73709 12.3022 9.71685 12.2566 9.69 12.215ZM9 2C7.51664 2 6.0666 2.43987 4.83323 3.26398C3.59986 4.08809 2.63856 5.25943 2.07091 6.62987C1.50325 8.00032 1.35472 9.50832 1.64411 10.9632C1.9335 12.418 2.64781 13.7544 3.6967 14.8033C4.7456 15.8522 6.08197 16.5665 7.53683 16.8559C8.99168 17.1453 10.4997 16.9968 11.8701 16.4291C13.2406 15.8614 14.4119 14.9001 15.236 13.6668C16.0601 12.4334 16.5 10.9834 16.5 9.5C16.5 8.51509 16.306 7.53982 15.9291 6.62987C15.5522 5.71993 14.9997 4.89314 14.3033 4.1967C13.6069 3.50026 12.7801 2.94781 11.8701 2.5709C10.9602 2.19399 9.98492 2 9 2ZM9 15.5C7.81332 15.5 6.65328 15.1481 5.66658 14.4888C4.67989 13.8295 3.91085 12.8925 3.45673 11.7961C3.0026 10.6997 2.88378 9.49334 3.11529 8.32946C3.3468 7.16557 3.91825 6.09647 4.75736 5.25736C5.59648 4.41824 6.66558 3.8468 7.82946 3.61529C8.99335 3.38378 10.1997 3.5026 11.2961 3.95672C12.3925 4.41085 13.3295 5.17988 13.9888 6.16658C14.6481 7.15327 15 8.31331 15 9.5C15 11.0913 14.3679 12.6174 13.2426 13.7426C12.1174 14.8679 10.5913 15.5 9 15.5Z" fill="#F95A5A"/>
</svg>
