<svg width="128" height="128" viewBox="0 0 128 128" fill="none" xmlns="http://www.w3.org/2000/svg">
<path fill-rule="evenodd" clip-rule="evenodd" d="M101.507 62.1867C100.894 50.621 95.9955 40.19 88.3844 32.5094C87.8123 31.9321 87.2243 31.3681 86.619 30.8206L86.6079 30.8107C78.6368 23.5912 68.0993 19.2002 56.546 19.2002C55.7266 19.2002 54.9232 19.2234 54.1144 19.2666C42.6532 19.8853 32.3187 24.8288 24.7076 32.5094C16.5594 40.7324 11.5195 52.0924 11.5195 64.6402C11.5195 89.7357 31.6785 110.08 56.546 110.08C63.4786 110.08 70.0451 108.499 75.911 105.674C74.547 104.921 73.1938 104.093 71.8599 103.188C68.5616 100.951 65.6435 98.4315 63.1573 95.7475C62.33 95.925 61.4909 96.071 60.6415 96.1821C59.301 96.3579 57.9337 96.4475 56.546 96.4475C39.1388 96.4475 25.0273 82.2077 25.0273 64.6402C25.0273 56.4752 28.0765 49.0285 33.088 43.3966C38.1845 37.6685 45.3099 33.8182 53.3234 32.9971C53.828 32.944 54.3351 32.9075 54.8438 32.8793C55.2503 32.8577 55.6575 32.8428 56.0627 32.8362C56.143 32.8362 56.2233 32.8353 56.3037 32.8345C56.3844 32.8337 56.4651 32.8329 56.546 32.8329C64.5874 32.8329 71.926 35.8719 77.4943 40.8734C77.5111 40.8887 77.5277 40.9036 77.5443 40.9185C77.5656 40.9376 77.5869 40.9567 77.6082 40.9763C83.009 45.8755 86.7236 52.6308 87.7663 60.2467C74.7259 54.6712 62.1729 55.568 56.8393 63.579C50.2783 73.4336 57.6467 90.0251 73.2972 100.637C88.9476 111.249 106.954 111.863 113.515 102.008C119.348 93.2472 116.696 80.8597 104.477 70.3846C103.993 75.1047 102.153 81.0917 100.26 85.4219C104.136 89.7201 104.169 92.6123 102.379 95.3016C100.465 98.1758 95.1532 97.5085 89.6974 95.3892C89.8182 95.2567 89.9381 95.1234 90.0573 94.9894C90.1181 94.9206 90.1792 94.8512 90.24 94.782C90.2745 94.7426 90.3088 94.7033 90.3429 94.6642C92.9348 91.6948 95.1485 88.3837 96.9078 84.8039C99.3283 79.867 100.843 74.5072 101.368 68.9964C101.503 67.5631 101.572 66.11 101.572 64.6402C101.572 63.8124 101.55 63.0029 101.507 62.1867ZM77.6 88.311C78.4437 87.546 79.2462 86.7355 80.004 85.8838C80.1918 85.6731 80.3771 85.4591 80.5592 85.2435C82.4253 83.0305 83.9959 80.5555 85.2107 77.883C85.7234 76.7528 86.1694 75.5936 86.5468 74.4115C79.4226 70.3198 69.6624 67.1431 67.033 71.0925C64.4676 74.9457 71.1363 83.0138 77.6 88.311Z" fill="url(#paint0_linear_42_23638)"/>
<defs>
<linearGradient id="paint0_linear_42_23638" x1="63.9995" y1="19.2002" x2="63.9995" y2="110.08" gradientUnits="userSpaceOnUse">
<stop stop-color="#8CB4FF"/>
<stop offset="1" stop-color="#0D409D"/>
</linearGradient>
</defs>
</svg>
